<?xml version="1.0" standalone="no"?>
<!DOCTYPE svg PUBLIC "-//W3C//DTD SVG 20010904//EN"
 "http://www.w3.org/TR/2001/REC-SVG-20010904/DTD/svg10.dtd">
<svg version="1.0" xmlns="http://www.w3.org/2000/svg"
 width="1300.000000pt" height="1300.000000pt" viewBox="0 0 1300.000000 1300.000000"
 preserveAspectRatio="xMidYMid meet">
<metadata>
Created by potrace 1.14, written by Peter Selinger 2001-2017
</metadata>
<g transform="translate(0.000000,1300.000000) scale(0.100000,-0.100000)"
fill="#000000" stroke="none">
<path d="M5910 12958 c-142 -76 -165 -89 -225 -128 -33 -22 -69 -43 -80 -49
-11 -5 -31 -19 -45 -30 -13 -12 -39 -31 -57 -42 -18 -11 -33 -24 -33 -28 0 -4
-12 -14 -27 -23 -16 -10 -41 -29 -58 -43 -16 -14 -52 -45 -78 -68 -103 -89
-363 -355 -417 -426 -29 -38 -145 -152 -209 -205 -46 -39 -165 -158 -219 -221
-58 -67 -127 -225 -124 -282 1 -12 -3 -25 -8 -28 -6 -4 -10 15 -10 49 0 86
-12 84 -99 -22 -50 -62 -98 -130 -155 -221 -15 -25 -31 -48 -35 -51 -8 -6 -26
-35 -52 -85 -12 -22 -32 -55 -46 -72 -13 -18 -20 -33 -16 -33 4 0 3 -4 -3 -8
-6 -4 -26 -36 -44 -71 -27 -52 -34 -78 -38 -142 -3 -44 -6 -79 -7 -79 -1 0
-17 8 -36 17 -51 25 -195 30 -261 8 -101 -32 -142 -58 -209 -129 -44 -46 -99
-170 -99 -221 0 -14 -15 -35 -40 -56 -54 -46 -180 -168 -180 -175 0 -3 -18
-24 -40 -48 -22 -23 -60 -69 -85 -102 -25 -32 -49 -64 -55 -71 -5 -7 -10 -17
-10 -23 0 -5 -4 -10 -8 -10 -5 0 -16 -15 -25 -32 -21 -41 -38 -67 -57 -89 -8
-10 -28 -44 -44 -76 -16 -32 -32 -60 -35 -63 -8 -6 -35 -54 -61 -105 -11 -22
-24 -47 -30 -55 -11 -17 -39 -87 -39 -97 1 -3 -3 -9 -9 -12 -5 -3 -28 -46 -51
-96 -23 -49 -51 -108 -62 -130 -12 -22 -46 -88 -76 -148 -31 -59 -59 -110 -64
-113 -5 -3 -19 -24 -30 -46 -35 -68 -144 -195 -296 -343 -79 -77 -143 -148
-143 -157 0 -44 139 -16 240 49 93 59 284 204 368 281 14 12 26 22 28 22 3 0
-6 -37 -26 -105 -59 -200 -79 -417 -55 -610 18 -146 93 -331 167 -411 69 -75
227 -171 309 -188 13 -3 40 -10 59 -16 19 -6 76 -13 125 -16 59 -4 112 -15
155 -31 36 -13 79 -29 95 -35 17 -5 44 -16 60 -24 34 -15 204 -53 250 -56 17
-1 35 -4 40 -7 24 -14 228 -20 322 -10 76 8 137 32 130 52 -2 7 -10 12 -18 13
-8 0 -18 2 -24 2 -5 1 13 24 40 51 28 27 56 56 63 65 23 29 62 110 68 142 l6
31 -134 1 c-256 2 -435 62 -557 185 -46 48 -55 62 -97 147 -18 36 -26 69 -25
97 2 57 45 200 86 288 19 40 35 75 35 78 0 22 69 148 99 181 21 22 51 59 67
81 16 22 32 42 35 45 19 17 101 174 123 236 12 35 12 35 25 -58 25 -176 75
-356 137 -486 34 -71 56 -94 74 -76 10 10 16 67 25 214 11 186 16 189 52 43
18 -70 35 -144 39 -163 9 -41 9 -40 16 -60 6 -14 47 -210 64 -305 9 -48 9 -44
1 -230 -9 -185 -53 -492 -107 -750 -41 -196 -92 -421 -106 -470 -7 -27 -16
-68 -19 -89 -4 -35 -17 -51 -92 -124 -49 -46 -106 -97 -127 -115 -21 -18 -66
-54 -98 -80 -65 -53 -78 -74 -57 -88 18 -11 46 -6 99 20 24 12 50 21 57 21 7
0 13 5 13 12 0 6 3 9 6 5 3 -3 31 10 62 29 32 19 61 34 65 34 8 0 2 -73 -8
-102 -2 -7 -6 -29 -9 -48 -3 -19 -8 -46 -10 -60 -19 -102 -37 -259 -41 -353
-4 -92 -8 -116 -25 -137 -11 -14 -27 -38 -36 -54 -43 -77 -268 -336 -293 -336
-8 0 -18 25 -26 66 -5 22 -158 399 -164 404 -3 3 -17 28 -30 55 -14 28 -46 88
-73 134 -26 46 -48 85 -48 87 0 3 -55 92 -156 254 -29 47 -71 115 -94 151 -22
36 -49 75 -60 87 -11 12 -20 25 -20 30 0 15 -210 222 -226 222 -21 0 -18 -5
32 -57 25 -27 62 -68 82 -92 20 -24 48 -56 62 -70 13 -14 40 -49 60 -78 19
-28 51 -71 71 -95 33 -38 126 -190 239 -388 54 -94 170 -321 170 -332 0 -14
50 -117 59 -123 8 -4 32 -78 77 -235 9 -30 27 -86 39 -125 13 -38 33 -104 45
-145 12 -41 26 -80 31 -86 5 -6 6 -14 3 -17 -4 -4 0 -17 8 -29 8 -13 25 -53
38 -90 13 -37 26 -65 29 -63 4 5 42 -86 58 -140 4 -11 10 -22 13 -25 4 -3 28
-72 52 -155 41 -137 48 -151 76 -167 17 -9 34 -13 37 -8 3 4 -8 14 -25 22 -16
7 -30 18 -30 25 0 7 -7 33 -16 59 -8 25 -14 47 -12 49 2 2 33 -25 70 -60 81
-76 119 -88 281 -86 109 1 237 17 160 20 -28 1 -33 5 -33 26 0 13 5 37 12 52
18 43 118 212 128 218 6 4 10 10 10 16 0 19 -27 8 -70 -31 -74 -65 -76 -67
-162 -123 -107 -70 -181 -107 -224 -112 -29 -4 -40 1 -75 35 -40 38 -40 40
-26 67 58 107 132 323 166 478 12 55 25 111 28 125 3 14 7 32 8 40 1 8 5 29 8
45 12 53 19 99 21 130 2 17 6 48 9 70 17 101 25 325 12 344 -11 18 -29 12 -50
-16 -25 -34 -152 -159 -229 -227 -32 -28 -69 -61 -81 -72 -12 -12 -31 -25 -42
-28 -11 -4 -28 -15 -38 -26 -10 -11 -22 -20 -27 -20 -5 0 -28 -13 -51 -29 -62
-42 -85 -47 -89 -19 -2 16 9 33 39 61 23 21 68 71 100 110 32 40 64 78 71 85
6 8 26 35 44 60 17 26 35 49 38 52 10 7 113 169 138 215 34 64 102 215 124
275 11 30 22 62 25 70 3 8 7 20 9 25 2 6 15 48 30 95 14 47 37 130 50 185 32
134 37 144 96 190 142 113 478 470 478 507 0 6 2 9 5 6 6 -6 -80 -212 -104
-248 -9 -14 -29 -50 -44 -80 -15 -30 -40 -77 -56 -105 -239 -432 -334 -681
-366 -969 -8 -73 -8 -311 0 -386 6 -55 33 -207 50 -275 42 -176 164 -415 211
-415 17 0 20 42 8 120 -18 117 -21 151 -19 214 1 39 6 111 10 159 7 84 10 91
51 146 24 32 83 103 131 158 107 122 146 170 155 194 11 29 13 23 12 -38 0
-32 8 -101 18 -153 25 -128 26 -135 29 -137 1 -2 2 -6 4 -10 1 -5 7 -21 13
-36 7 -16 12 -31 12 -34 0 -8 53 -117 60 -123 3 -3 16 -25 29 -50 68 -129 246
-310 303 -310 30 0 40 34 29 98 -6 31 -17 98 -26 149 -8 50 -18 100 -21 110
-5 15 -4 15 7 -1 25 -41 161 -158 207 -179 12 -6 22 -14 22 -19 0 -4 5 -8 11
-8 6 0 30 -14 55 -30 24 -17 66 -41 93 -54 28 -13 56 -28 63 -33 23 -19 375
-169 418 -178 8 -2 15 -4 15 -5 0 -1 7 -3 15 -5 8 -3 42 -14 75 -26 33 -11 67
-23 75 -25 8 -2 42 -11 75 -19 55 -15 116 -26 220 -41 22 -3 74 -12 115 -19
41 -7 134 -13 205 -13 149 0 236 9 435 47 51 9 215 57 233 68 7 3 3 -5 -9 -18
-11 -13 -44 -52 -74 -87 -32 -38 -72 -73 -101 -87 -39 -20 -268 -86 -399 -115
-19 -5 -73 -18 -119 -30 -123 -32 -191 -26 -306 29 -150 72 -159 75 -202 61
-36 -12 -117 -57 -213 -120 -25 -16 -56 -34 -69 -40 -13 -6 -46 -30 -75 -53
-28 -24 -78 -57 -111 -73 -33 -16 -61 -32 -63 -36 -2 -5 -9 -8 -15 -8 -11 0
-121 -49 -157 -70 -8 -5 -78 -41 -155 -80 -183 -92 -278 -144 -314 -169 -16
-12 -47 -29 -68 -39 -42 -20 -151 -89 -171 -109 -7 -7 -16 -13 -20 -13 -4 0
-24 -15 -44 -33 -21 -17 -46 -39 -56 -47 -10 -8 -44 -46 -75 -84 -32 -37 -81
-88 -110 -113 l-52 -44 -7 33 c-4 18 -9 53 -12 78 -2 25 -8 73 -11 107 -9 72
-3 85 78 171 50 53 61 80 16 41 -13 -12 -38 -33 -55 -48 -48 -40 -120 -153
-139 -216 -22 -77 -30 -176 -17 -214 16 -44 -9 -41 -57 7 -60 60 -66 98 -31
177 5 11 12 31 16 45 10 39 110 186 162 239 57 58 228 211 237 211 3 0 25 18
47 40 23 22 48 40 55 40 7 0 13 4 13 9 0 11 145 118 240 177 151 95 265 168
270 173 3 3 18 13 35 21 55 28 217 142 246 174 72 78 51 193 -39 212 -20 4
-41 9 -47 10 -10 3 -26 6 -120 24 -87 16 -215 25 -370 24 -147 0 -151 -1 -215
-32 -58 -27 -77 -39 -127 -82 -7 -5 -15 -10 -19 -10 -13 0 -162 -145 -192
-187 -11 -16 -17 -34 -14 -40 5 -8 36 17 84 65 42 42 91 88 108 102 18 14 38
30 45 37 7 7 47 33 89 58 83 51 112 57 271 59 112 1 241 -9 431 -35 97 -13
109 -25 106 -114 -3 -68 -10 -79 -91 -132 -31 -20 -62 -43 -69 -50 -7 -7 -19
-13 -25 -13 -7 0 -25 -11 -41 -25 -16 -14 -33 -25 -38 -25 -10 0 -215 -136
-241 -160 -9 -9 -30 -23 -45 -31 -57 -30 -170 -105 -236 -158 -38 -31 -80 -65
-95 -76 -14 -11 -31 -24 -37 -30 -6 -5 -31 -25 -55 -44 -24 -19 -95 -86 -157
-149 -61 -63 -109 -107 -106 -98 3 9 10 16 15 16 5 0 9 6 9 13 1 6 23 48 50
92 46 75 54 95 32 81 -26 -16 -197 -311 -207 -356 -5 -21 -83 -241 -95 -265
-5 -11 -19 -46 -30 -77 -15 -39 -49 -91 -106 -160 -46 -57 -89 -108 -94 -115
-6 -7 -10 -16 -10 -22 0 -5 -3 -11 -7 -13 -5 -1 -16 -19 -26 -38 -40 -79 -124
-151 -216 -186 -36 -13 -36 -13 25 -10 69 5 99 17 129 54 34 43 47 57 42 47
-3 -5 -8 -39 -11 -75 -12 -121 -14 -133 -40 -225 -7 -27 -16 -84 -20 -125 -11
-115 -16 -163 -21 -190 -6 -31 -14 -161 -24 -395 -11 -248 -1 -1026 14 -1104
2 -10 0 -73 -3 -140 -7 -121 -7 -121 15 -121 l23 0 -5 148 c-7 245 -9 401 -5
405 3 1 23 16 44 32 60 43 136 94 136 90 0 -2 29 11 65 30 36 19 67 35 70 35
3 -1 27 9 53 21 26 12 49 23 52 23 6 2 134 54 180 74 59 26 274 102 305 109
87 17 186 1 275 -46 105 -56 161 -88 210 -122 53 -37 80 -48 80 -31 0 9 -137
96 -188 120 -20 9 -39 20 -42 24 -3 4 -46 23 -95 42 -145 56 -216 47 -520 -71
-49 -19 -108 -43 -130 -53 -22 -10 -84 -37 -139 -60 -157 -67 -323 -162 -334
-192 -2 -4 -10 -8 -18 -8 -12 0 -15 14 -14 73 1 39 1 187 1 327 -1 280 9 375
55 515 36 112 56 143 130 200 86 67 520 335 543 335 5 0 12 7 15 16 13 33 -68
-10 -297 -159 -76 -49 -140 -87 -143 -84 -4 3 5 30 18 59 14 29 30 69 37 88 7
19 20 49 29 65 9 17 15 31 13 33 -6 5 11 62 19 62 5 0 11 13 15 30 3 16 17 52
31 80 13 27 24 54 24 60 0 5 8 26 19 47 10 21 43 90 72 153 251 534 347 671
576 820 41 27 83 52 93 55 11 4 20 10 20 14 0 4 19 16 43 27 23 10 44 21 47
24 3 3 50 28 105 55 55 28 102 53 103 58 2 4 7 5 12 2 4 -3 13 2 20 10 7 8 17
15 23 15 5 0 69 29 141 63 72 35 146 70 164 77 17 7 32 16 32 21 0 5 7 9 15 9
9 0 33 11 55 25 22 14 42 25 45 25 5 0 127 91 135 101 11 15 274 171 294 175
25 5 105 -14 126 -31 18 -14 91 -48 143 -67 l38 -14 -77 -13 -77 -13 -33 39
c-18 21 -33 44 -34 51 0 14 -16 16 -25 2 -6 -9 44 -112 58 -118 4 -2 7 -10 7
-18 0 -8 12 -27 26 -42 21 -22 106 -143 149 -212 6 -8 48 -64 95 -124 47 -59
106 -134 131 -167 25 -33 65 -79 88 -104 22 -24 41 -49 41 -54 0 -6 4 -11 8
-11 4 0 45 -42 90 -93 94 -108 239 -261 352 -370 42 -41 212 -190 270 -237 30
-25 57 -47 60 -50 3 -3 33 -27 67 -53 34 -26 68 -53 75 -60 7 -7 36 -31 63
-52 28 -22 86 -70 130 -107 209 -176 284 -233 335 -255 30 -14 66 -30 79 -36
38 -19 309 -15 411 5 47 10 102 20 122 23 35 4 236 54 378 92 36 10 67 21 68
26 2 4 11 7 20 7 17 0 78 18 103 30 9 5 36 14 60 20 24 7 58 18 74 25 17 7 68
25 115 40 47 15 110 37 140 49 30 12 89 35 130 51 41 16 84 35 95 41 11 7 36
15 55 19 43 9 178 53 205 68 11 6 22 12 25 13 21 5 55 24 117 66 40 26 76 48
81 48 19 0 373 364 452 465 47 61 59 75 120 145 158 183 272 344 310 440 21
53 86 239 114 330 13 39 28 115 28 137 0 4 -5 9 -11 11 -6 2 -11 -3 -11 -12 0
-20 -11 -20 -55 1 l-36 17 88 22 c101 25 95 26 218 -55 39 -25 81 -51 95 -58
14 -7 32 -17 40 -23 46 -31 150 -92 180 -105 19 -9 37 -19 40 -23 3 -4 19 -14
35 -23 46 -24 289 -172 295 -179 3 -4 33 -23 68 -44 34 -21 62 -41 62 -46 0
-5 8 -11 18 -14 17 -6 66 -46 130 -108 l32 -31 0 27 c0 29 -52 86 -102 112
-16 8 -28 19 -28 24 0 5 -8 11 -18 14 -36 12 -101 82 -117 126 -27 74 -77 344
-87 464 -5 52 -14 24 -32 -97 -10 -67 -29 -155 -42 -196 -12 -41 -21 -78 -18
-83 12 -19 -27 -18 -52 1 -15 12 -31 21 -35 21 -5 0 -104 57 -219 127 -116 71
-224 136 -241 146 -16 9 -44 26 -61 37 -54 33 -81 41 -108 35 -14 -4 -32 -9
-40 -11 -8 -2 -55 -15 -105 -29 -79 -23 -100 -25 -170 -19 -44 4 -125 9 -180
10 -92 1 -171 5 -380 19 -44 2 -120 7 -170 10 -245 16 -241 14 -147 88 91 72
114 89 161 120 73 47 127 78 144 84 9 3 17 8 17 12 0 8 69 45 85 46 6 0 38 17
72 37 35 21 82 43 105 49 24 7 45 13 48 14 3 1 19 8 35 15 17 7 35 14 40 15 6
0 23 6 38 13 15 6 40 15 55 18 15 4 33 11 40 17 6 5 12 6 12 3 0 -4 10 -1 23
6 12 6 27 13 34 14 38 6 363 171 428 217 166 116 395 330 395 368 0 5 5 9 10
9 6 0 10 6 10 14 0 8 5 18 12 22 8 5 9 2 3 -12 -19 -45 -82 -234 -79 -234 2 0
-2 -15 -10 -33 -13 -33 -15 -101 -3 -113 13 -13 67 19 104 60 77 86 122 157
193 308 94 200 155 410 165 568 3 52 8 129 11 171 9 121 -18 262 -91 486 -36
109 -71 218 -79 243 -20 63 -70 224 -71 230 -1 3 -33 104 -73 225 -80 246
-103 329 -127 460 -25 133 -26 147 -30 305 -6 205 11 323 82 580 19 69 41 150
49 180 8 30 17 62 21 70 3 8 8 26 10 39 2 14 8 32 12 40 5 9 23 70 41 136 17
66 36 131 40 145 5 14 14 50 20 80 6 30 17 82 25 115 7 33 16 86 20 118 7 58
12 67 20 31 15 -73 58 -236 95 -359 19 -66 31 -141 45 -280 3 -33 7 -73 9 -90
3 -16 7 -57 11 -90 4 -33 8 -67 10 -75 1 -8 5 -42 9 -75 4 -33 14 -103 23
-155 8 -52 17 -111 19 -130 3 -19 7 -42 10 -51 2 -9 7 -34 10 -55 9 -63 10
-67 17 -104 4 -19 9 -46 12 -60 2 -14 11 -56 20 -95 10 -47 12 -72 5 -79 -6
-6 -52 -13 -103 -16 -89 -5 -92 -6 -95 -30 -6 -49 105 -131 191 -143 20 -3 40
0 43 5 8 12 -15 29 -36 26 -8 0 -28 4 -43 10 -16 7 -32 12 -36 12 -11 0 -101
80 -101 89 0 4 34 8 76 9 92 2 150 30 139 66 -3 11 -10 49 -14 83 -5 34 -12
66 -15 71 -3 5 -8 27 -12 48 -3 22 -7 48 -9 60 -1 11 -8 45 -13 75 -6 30 -14
79 -17 109 l-6 55 42 -85 c24 -46 44 -79 47 -72 2 7 -5 31 -17 55 -34 71 -69
178 -90 277 -20 95 -51 306 -50 338 0 25 55 -151 100 -323 59 -227 57 -224 58
-118 1 89 -18 180 -41 194 -5 3 -15 28 -22 55 -8 27 -26 90 -41 139 -32 105
-46 153 -75 255 -11 41 -23 81 -25 88 -2 7 -5 14 -5 17 -1 3 -6 19 -11 37 -28
90 -50 165 -53 183 -2 11 -18 73 -35 137 -74 282 -98 489 -93 808 3 189 5 202
18 170 l14 -35 -5 35 c-3 19 -8 46 -11 60 -10 44 -12 153 -4 215 26 188 29
233 31 411 1 76 6 144 10 150 5 6 29 9 55 8 100 -6 212 -64 265 -137 l29 -40
0 39 c-1 22 -8 48 -18 59 -21 25 -111 85 -127 85 -7 0 -26 7 -43 16 -17 8 -54
15 -82 16 -54 0 -58 10 -11 26 55 19 141 10 206 -23 33 -16 63 -31 67 -33 5
-2 8 3 8 11 0 33 -163 94 -224 82 -67 -12 -116 -28 -116 -36 0 -5 -8 -9 -17
-9 -9 0 -14 3 -11 6 4 3 -12 38 -34 77 -21 40 -49 92 -60 117 -11 25 -24 47
-27 50 -3 3 -16 25 -29 50 -55 109 -168 275 -235 344 -32 34 -61 72 -64 86
-18 72 -104 213 -174 285 -11 11 -32 34 -47 51 -15 17 -52 49 -82 71 -51 37
-91 61 -224 132 -44 24 -107 74 -213 172 -23 22 -46 39 -52 39 -5 0 -11 4 -13
8 -4 11 -191 151 -240 181 -22 13 -49 21 -65 19 -26 -3 -24 -5 26 -31 29 -16
63 -37 74 -48 11 -10 24 -19 27 -19 4 0 16 -8 28 -18 11 -10 33 -27 48 -38 51
-37 89 -69 102 -86 7 -10 18 -18 24 -18 11 0 141 -123 227 -214 25 -27 66 -70
91 -96 25 -26 64 -71 86 -101 23 -30 53 -66 67 -81 14 -16 24 -28 21 -28 -3 0
14 -24 38 -54 78 -98 150 -201 164 -236 l14 -35 -23 28 c-78 96 -101 122 -144
158 -26 23 -60 52 -75 64 -43 38 -138 99 -144 92 -3 -3 4 -11 16 -17 26 -14
28 -15 158 -125 56 -47 102 -89 102 -93 1 -4 31 -38 67 -77 36 -38 60 -62 53
-52 -7 10 -8 17 -2 17 20 0 21 -23 8 -216 -4 -55 -9 -114 -11 -132 -7 -56 -18
-305 -17 -382 1 -64 6 -84 37 -147 20 -40 41 -78 48 -85 39 -43 76 -99 73
-110 -10 -30 -15 -162 -7 -148 5 9 11 46 13 82 l3 67 62 -67 c35 -37 63 -68
63 -69 0 -6 60 -62 103 -97 26 -21 47 -44 47 -52 0 -7 9 -19 20 -27 20 -14 21
-23 19 -278 -3 -234 2 -359 16 -439 8 -47 15 -86 19 -121 3 -19 9 -55 15 -80
6 -25 8 -61 6 -80 -3 -19 -6 -50 -9 -70 -8 -79 -62 -306 -122 -514 -95 -329
-125 -429 -130 -435 -5 -5 2 101 12 185 7 55 6 573 -1 682 -6 95 -40 376 -55
458 -9 49 -9 48 -5 -15 6 -71 9 -107 25 -250 25 -218 35 -742 17 -905 -28
-262 -63 -485 -83 -516 -3 -5 -7 -17 -9 -26 -2 -10 -17 -74 -34 -143 -48 -191
-49 -200 -41 -200 4 0 11 17 15 38 3 20 13 57 21 82 8 25 23 77 33 115 l18 70
0 -120 c0 -200 14 -304 74 -555 17 -69 36 -138 44 -155 7 -16 23 -65 34 -107
25 -92 70 -230 101 -308 12 -30 23 -60 24 -67 1 -7 5 -16 9 -19 4 -4 7 -14 7
-22 0 -8 6 -28 14 -45 29 -64 126 -365 146 -452 18 -81 19 -115 15 -325 -3
-188 -8 -251 -24 -315 -45 -183 -153 -429 -247 -561 -50 -70 -119 -144 -135
-144 -16 0 6 86 66 255 84 237 89 255 64 255 -5 0 -20 -22 -34 -49 -51 -101
-150 -216 -277 -322 -31 -26 -67 -57 -79 -68 -13 -12 -26 -21 -30 -21 -4 0
-14 -6 -21 -12 -50 -48 -369 -228 -401 -228 -5 0 -25 -7 -45 -16 -21 -9 -47
-20 -59 -25 -13 -5 -33 -13 -45 -18 -13 -5 -61 -24 -108 -41 -47 -18 -103 -41
-125 -51 -22 -10 -65 -26 -95 -34 -30 -9 -69 -24 -87 -33 -17 -9 -66 -35 -110
-57 -43 -22 -79 -43 -81 -47 -2 -5 -10 -8 -18 -8 -8 0 -14 -4 -14 -8 0 -5 -19
-19 -42 -32 -47 -26 -153 -105 -179 -132 -9 -10 -20 -18 -23 -18 -4 0 -28 -20
-54 -45 -25 -25 -54 -47 -64 -51 -10 -3 -18 -12 -18 -20 0 -8 -8 -14 -17 -14
-20 0 -93 -70 -93 -89 0 -6 -35 -47 -77 -90 -43 -42 -94 -95 -113 -117 -19
-22 -66 -73 -103 -113 l-69 -72 7 42 c4 24 19 73 32 109 14 36 27 74 29 85 5
24 73 161 97 196 57 81 141 190 176 229 23 25 65 71 94 104 51 57 140 146 245
244 79 75 65 94 -34 47 -47 -22 -209 -66 -289 -78 -16 -3 -37 -8 -45 -11 -8
-3 -37 -7 -65 -10 -27 -3 -93 -10 -145 -16 -139 -16 -362 -4 -453 25 l-71 22
169 6 c255 8 332 25 484 101 171 85 636 345 741 413 92 60 365 269 391 299 15
18 32 54 25 54 -9 0 -93 -38 -237 -105 -268 -127 -562 -239 -783 -299 -173
-48 -165 -31 36 73 213 110 466 252 557 313 35 24 74 59 87 79 l22 36 -46 -13
c-26 -7 -69 -24 -96 -38 -27 -14 -65 -28 -85 -31 -20 -3 -78 -15 -129 -26 -52
-12 -95 -19 -97 -17 -3 2 39 38 92 78 53 41 101 80 107 85 6 6 29 25 51 44
107 90 168 147 188 175 13 19 -12 1 -63 -44 -192 -170 -453 -367 -458 -346 -1
7 17 41 40 75 76 111 122 190 156 271 11 25 25 60 33 78 8 17 17 32 21 32 4 0
6 8 6 18 -1 9 14 55 33 102 18 47 33 90 31 97 -1 6 2 14 8 18 5 3 10 17 10 31
0 13 4 32 10 42 10 19 42 139 42 162 1 8 4 20 9 25 4 6 15 47 24 90 10 44 18
87 20 95 2 8 11 53 20 100 9 47 22 117 30 155 8 39 19 106 25 150 11 84 17
133 24 175 2 14 8 79 11 144 l8 119 39 36 c34 31 143 140 201 202 30 33 18 32
-20 -1 -21 -18 -72 -65 -113 -104 -74 -70 -113 -103 -164 -140 -15 -11 -37
-29 -49 -40 -13 -12 -36 -30 -51 -41 -42 -31 -179 -134 -199 -150 -9 -8 -19
-15 -22 -15 -3 0 -28 -15 -58 -34 -46 -30 -131 -72 -237 -119 -32 -14 -150
-40 -156 -34 -1 1 41 31 94 67 229 155 306 216 433 339 59 58 143 174 228 316
87 145 171 314 171 341 0 8 5 14 10 14 6 0 9 3 9 8 -1 4 0 10 1 15 1 4 3 10 4
15 1 4 9 30 19 57 9 28 19 66 22 85 3 19 10 51 15 70 21 79 29 238 24 500 -3
151 -7 289 -9 305 -2 17 -7 71 -10 120 -4 50 -9 92 -11 96 -1 3 -5 39 -9 80
-3 40 -8 83 -10 95 -3 12 -7 39 -10 60 -3 21 -7 48 -10 59 -2 11 -7 43 -11 70
-3 28 -8 53 -10 56 -2 4 -6 28 -9 55 -3 27 -12 74 -20 104 -7 30 -16 75 -20
100 -22 140 -90 381 -168 595 -42 117 -44 121 -52 113 -3 -3 13 -63 35 -134
22 -71 42 -137 43 -146 2 -10 6 -21 10 -24 4 -4 7 -19 7 -34 0 -14 4 -30 9
-36 10 -11 53 -183 85 -339 59 -298 63 -325 46 -325 -18 0 -149 132 -199 200
-84 113 -143 228 -167 324 -9 36 -21 66 -26 66 -5 0 -7 -8 -4 -17 14 -48 46
-193 72 -321 36 -183 42 -174 -133 -176 -165 -1 -177 4 -453 196 -206 143
-374 318 -541 563 -139 204 -193 301 -209 380 -16 75 -32 106 -24 45 7 -48 74
-374 97 -475 8 -33 31 -118 51 -188 21 -71 39 -136 41 -147 2 -10 11 -32 20
-50 9 -18 18 -42 19 -54 2 -11 13 -52 24 -90 26 -82 27 -93 6 -75 -58 48 -220
341 -308 559 -108 265 -204 610 -227 810 -18 167 -24 168 -38 9 -7 -79 -16
-162 -21 -184 -5 -22 -16 -80 -25 -130 -25 -136 -24 -135 -47 -215 -11 -41
-21 -81 -21 -87 0 -7 -4 -13 -8 -13 -4 0 -7 -8 -7 -17 1 -10 -11 -61 -26 -113
-46 -158 -64 -222 -80 -280 -9 -30 -32 -134 -51 -230 -39 -192 -62 -273 -75
-265 -5 3 -16 27 -26 53 -30 81 -32 81 -110 2 -38 -39 -76 -76 -86 -81 -15 -8
-15 -4 -3 46 7 30 10 57 7 60 -14 13 -32 2 -57 -37 -35 -53 -103 -117 -130
-123 -11 -2 -40 -6 -65 -9 -25 -3 -119 -17 -210 -30 -91 -14 -192 -28 -225
-31 -33 -4 -62 -9 -65 -10 -3 -2 -30 -6 -60 -10 -30 -3 -62 -8 -71 -11 -17 -5
-13 20 25 166 22 84 40 453 31 642 -12 268 -24 218 -25 -102 -1 -162 -5 -304
-9 -314 -7 -17 -11 -14 -32 22 -42 73 -160 264 -226 365 -77 119 -135 224
-162 295 -47 118 -161 568 -161 631 0 21 -14 28 -24 12 -6 -8 -14 -122 -17
-230 l-2 -57 -106 -34 c-58 -19 -112 -37 -119 -38 -11 -3 -13 15 -12 85 2 108
1 128 -5 121 -7 -6 -8 -14 -26 -136 l-13 -92 -113 -54 c-109 -53 -288 -153
-321 -181 -31 -26 -96 -75 -134 -100 -92 -62 -328 -325 -328 -366 0 -6 26 22
59 63 173 219 382 384 680 535 80 40 146 72 147 70 5 -4 -57 -316 -90 -452
-36 -148 -118 -396 -167 -502 -16 -35 -29 -66 -29 -68 0 -3 -15 -38 -34 -77
-87 -189 -118 -248 -125 -244 -19 12 -30 358 -15 457 l7 44 -20 -25 c-11 -14
-35 -70 -53 -125 -64 -195 -164 -347 -355 -538 -76 -76 -207 -187 -220 -187
-7 0 0 51 20 137 8 35 17 77 20 93 3 17 21 91 40 165 34 132 45 198 24 145
-28 -68 -81 -264 -118 -430 -42 -189 -78 -310 -111 -377 -11 -21 -19 -36 -20
-33 0 3 -7 59 -15 125 -9 66 -18 160 -22 210 -9 129 -24 162 -18 40 3 -55 7
-129 10 -165 3 -36 7 -92 10 -125 3 -33 11 -114 19 -180 13 -103 23 -167 61
-380 3 -16 10 -43 15 -60 5 -16 16 -68 25 -115 19 -96 61 -235 110 -360 18
-47 36 -96 40 -110 4 -14 24 -59 45 -100 21 -41 61 -122 90 -179 29 -57 72
-137 96 -178 24 -41 38 -71 31 -67 -116 68 -292 225 -373 336 -13 17 -24 27
-24 22 0 -5 8 -20 18 -33 27 -37 164 -193 192 -220 45 -42 214 -165 255 -186
22 -10 48 -26 58 -34 9 -8 17 -11 17 -7 0 3 19 -4 43 -16 23 -12 44 -22 47
-23 3 0 11 -4 17 -8 20 -13 175 -53 236 -62 17 -2 43 -7 57 -10 14 -3 57 -8
95 -11 39 -4 73 -9 77 -13 9 -8 -222 7 -367 24 -109 13 -298 59 -380 92 -109
45 -186 85 -219 113 -20 18 -36 27 -36 22 0 -25 78 -84 170 -129 l99 -48 31
-90 c61 -175 136 -347 175 -400 25 -33 64 -149 89 -265 19 -85 23 -99 101
-340 31 -96 60 -179 65 -185 5 -5 9 -14 11 -20 17 -79 169 -352 280 -505 26
-36 19 -31 -35 25 -229 236 -435 535 -622 903 -46 89 -83 165 -83 167 0 7 -39
115 -51 140 -6 11 -17 38 -25 60 -12 31 -14 33 -10 10 14 -74 121 -329 194
-460 24 -44 54 -98 66 -120 49 -90 218 -353 262 -410 31 -40 34 -43 68 -90 49
-66 66 -85 160 -185 109 -115 167 -171 172 -166 2 2 26 -19 53 -48 27 -28 47
-52 46 -53 -1 -2 -63 3 -137 11 -138 13 -159 12 -159 -8 0 -15 50 -63 109
-105 42 -30 43 -31 17 -31 -16 0 -25 -4 -21 -10 8 -13 8 -13 -120 10 -60 11
-136 20 -167 20 -32 0 -147 15 -255 34 -240 42 -293 49 -293 41 0 -14 92 -125
134 -162 58 -51 212 -117 481 -205 319 -105 564 -145 814 -136 106 4 122 -2
41 -16 -19 -3 -60 -12 -90 -21 -114 -33 -203 -45 -350 -47 -115 -1 -329 10
-342 19 -4 2 -22 6 -40 9 -72 10 -87 13 -188 39 -118 29 -329 99 -435 143 -94
39 -244 109 -275 128 -14 8 -37 20 -52 25 -16 6 -28 15 -28 20 0 5 -5 9 -11 9
-28 0 -218 136 -296 211 -28 27 -58 65 -67 84 -9 19 -22 37 -28 41 -13 9 -11
-9 36 -250 19 -99 33 -184 30 -188 -12 -20 -86 41 -185 152 -34 39 -129 176
-129 188 0 4 -16 38 -35 75 -20 38 -39 85 -44 105 -5 21 -16 63 -24 95 -24 85
-32 160 -31 270 0 53 -2 97 -6 97 -3 0 -17 -19 -30 -42 -29 -52 -105 -163
-136 -198 -78 -90 -104 -121 -139 -167 -21 -29 -40 -53 -42 -53 -6 0 8 94 18
125 17 55 76 285 73 285 -15 0 -73 -166 -102 -295 -51 -217 -69 -495 -42 -632
7 -34 10 -67 8 -74 -7 -20 -82 110 -116 201 -49 132 -86 295 -100 435 -10 97
-8 339 3 420 22 168 95 400 177 568 21 43 38 80 38 83 0 3 17 36 39 72 40 69
79 140 139 252 19 36 40 72 48 81 8 8 14 20 14 24 0 5 18 43 39 85 61 118 89
208 72 238 -8 14 -14 11 -46 -23 -20 -22 -43 -53 -52 -70 -40 -81 -556 -549
-698 -635 -22 -13 -42 -27 -45 -32 -20 -28 -283 -172 -302 -166 -9 3 100 104
177 163 109 85 465 439 465 463 0 5 8 17 18 28 34 37 124 178 171 268 147 283
184 459 163 763 -19 266 -42 396 -84 472 -17 31 -34 58 -37 61 -4 3 -47 59
-96 125 -50 66 -96 124 -102 128 -7 4 -13 14 -13 21 0 8 -7 16 -15 20 -8 3
-15 12 -15 21 0 8 -4 15 -8 15 -12 0 -86 153 -106 220 -10 30 -20 62 -23 70
-22 56 -24 79 -8 146 8 38 18 78 22 89 3 11 3 17 -1 14 -17 -16 -88 -322 -101
-434 -3 -27 -9 -86 -14 -130 -6 -44 -13 -131 -17 -194 -6 -112 -7 -114 -24
-91 -37 50 -99 236 -136 410 -22 104 -27 153 -28 290 0 91 3 198 7 238 12 103
88 400 106 412 4 3 20 42 34 87 14 45 47 126 73 180 25 54 53 114 60 133 l15
35 -21 -25 c-11 -14 -43 -70 -71 -125 l-50 -100 5 75 c3 41 8 89 11 105 3 17
13 68 21 115 15 80 42 190 48 190 1 0 1 -26 0 -57 l-4 -58 15 67 c16 80 14 76
133 253 51 76 97 155 102 174 5 20 9 131 8 246 -1 301 1 320 56 402 24 37 53
77 63 88 10 11 36 43 58 70 21 28 93 104 159 169 67 66 110 113 96 106 -43
-23 -233 -221 -313 -327 -43 -57 -80 -103 -83 -103 -6 0 133 268 177 340 208
342 585 755 934 1021 119 91 258 181 350 227 28 13 52 27 55 31 8 10 70 41 83
41 6 0 18 6 26 14 9 8 29 17 45 20 49 9 42 16 -15 15 -43 -1 -70 -10 -129 -41z
m5851 -463 c70 -42 98 -63 161 -119 37 -34 98 -125 98 -147 0 -10 4 -20 9 -23
5 -3 11 -16 14 -28 3 -13 12 -50 21 -82 19 -67 17 -96 -3 -48 -8 18 -17 32
-22 32 -5 0 -9 6 -9 13 0 7 -17 33 -37 59 -21 26 -66 84 -100 130 -70 95 -83
109 -167 196 -33 34 -55 62 -49 62 6 0 44 -20 84 -45z m363 -372 c33 -67 35
-76 29 -138 -6 -62 -7 -65 -19 -44 -7 13 -13 34 -14 45 0 12 -13 67 -30 122
-16 56 -30 105 -30 109 0 18 32 -28 64 -94z m98 -175 c42 -48 177 -264 215
-343 11 -22 24 -49 30 -60 84 -150 133 -294 130 -377 0 -22 1 -22 -42 2 l-35
20 -1 -28 c-2 -30 -5 -61 -7 -78 -4 -27 -36 -23 -82 10 l-48 34 -7 -64 c-3
-35 -11 -64 -16 -64 -5 0 -31 9 -59 19 -55 21 -51 24 -65 -46 l-7 -33 -21 28
c-33 41 -57 88 -57 110 0 12 -4 23 -8 26 -9 5 -8 24 3 206 4 58 8 139 10 180
13 297 19 370 33 424 6 22 9 44 6 48 -11 17 10 7 28 -14z m-7536 -80 c-43 -60
-149 -222 -172 -265 -41 -73 -74 -123 -81 -123 -11 0 7 111 24 138 49 81 76
114 153 189 47 45 87 83 89 83 2 0 -4 -10 -13 -22z m-276 -339 c-6 -18 -10
-52 -10 -75 0 -37 -24 -104 -36 -104 -11 0 6 102 26 157 11 32 20 59 20 62 0
2 2 2 5 0 2 -3 0 -21 -5 -40z m-106 -259 c21 -646 21 -606 -4 -660 -13 -27
-26 -47 -30 -45 -3 2 -12 27 -20 54 -7 28 -15 51 -17 51 -1 0 -24 -16 -49 -35
-26 -20 -52 -34 -58 -32 -6 2 -15 27 -21 55 l-10 51 -40 -34 c-22 -19 -44 -34
-48 -35 -4 0 -19 25 -33 55 -27 58 -27 58 -81 19 l-32 -24 -3 27 c-6 55 10
101 71 204 35 57 72 119 83 138 11 19 29 48 41 65 12 17 27 38 32 47 40 65
140 205 155 219 3 3 16 20 29 38 13 18 24 32 26 30 1 -2 5 -86 9 -188z m2866
-352 c0 -10 -4 -18 -10 -18 -5 0 -10 15 -10 33 0 24 3 28 10 17 5 -8 10 -23
10 -32z m2060 10 c0 -97 158 -548 276 -786 22 -45 38 -84 35 -86 -3 -2 -25 -1
-49 2 -50 5 -58 17 -112 167 -17 50 -36 99 -40 110 -13 34 -48 168 -56 215 -3
14 -13 68 -24 120 -16 83 -25 137 -45 263 -3 17 -1 26 5 22 6 -3 10 -16 10
-27z m-55 -95 c-6 -98 -11 -150 -31 -308 -10 -81 -69 -305 -99 -375 -29 -70
-125 -243 -132 -237 -2 2 8 46 22 98 15 52 27 99 29 104 1 6 8 28 14 50 6 22
14 56 17 75 3 19 10 39 16 44 5 6 9 18 9 28 0 16 28 115 52 183 5 17 11 37 12
45 1 8 11 42 21 75 10 33 19 69 21 80 3 22 22 110 28 135 3 8 8 36 12 63 12
80 16 52 9 -60z m22 85 c-3 -8 -6 -5 -6 6 -1 11 2 17 5 13 3 -3 4 -12 1 -19z
m17 -90 c9 -82 51 -294 77 -383 11 -38 27 -95 35 -125 20 -67 59 -173 83 -221
l18 -36 -29 -1 c-46 -1 -47 -12 -1 -12 48 0 63 -21 30 -43 -36 -23 -97 -90
-97 -106 0 -8 27 11 59 42 33 32 64 57 70 57 6 0 16 -10 22 -22 16 -30 70 -78
89 -78 10 0 6 8 -12 23 -27 21 -78 85 -78 96 1 23 18 30 51 21 26 -7 40 -19
53 -47 25 -52 117 -189 159 -238 63 -72 63 -24 -1 185 -53 174 -95 323 -122
433 -17 67 -40 157 -51 201 -11 43 -18 80 -16 82 2 2 14 -15 27 -38 39 -69
180 -279 227 -338 127 -158 256 -286 378 -375 22 -16 42 -32 45 -35 14 -16
162 -107 251 -153 l100 -52 130 -2 c154 -3 179 5 179 54 0 19 -7 68 -16 109
-8 42 -14 80 -12 86 2 6 21 -18 41 -53 21 -35 58 -86 83 -114 91 -101 156
-164 174 -170 24 -7 25 -13 45 -137 3 -18 7 -44 10 -58 2 -14 7 -54 11 -90 3
-36 7 -67 9 -70 2 -3 6 -45 9 -95 4 -49 9 -108 12 -130 3 -22 7 -85 8 -140 3
-94 2 -98 -11 -65 -83 208 -121 267 -244 387 -158 153 -223 202 -341 257 -99
46 -229 83 -314 90 -29 2 -56 6 -60 8 -19 9 -273 9 -334 -1 -36 -6 -85 -13
-110 -16 -124 -15 -203 -36 -276 -73 l-59 -31 60 5 c33 3 77 10 99 15 21 6 40
8 42 6 5 -5 -68 -33 -111 -43 -75 -17 -216 -97 -229 -130 -5 -12 0 -12 27 3
17 10 39 23 47 29 8 7 49 27 90 46 l75 35 -117 -119 c-110 -111 -153 -167 -92
-119 39 31 51 26 15 -6 -17 -15 -31 -32 -31 -37 0 -5 12 2 28 15 26 25 138
106 194 142 15 9 34 17 43 17 8 0 15 4 15 8 0 5 26 17 58 27 31 10 77 25 102
34 66 24 339 22 435 -3 160 -42 318 -134 457 -268 68 -66 210 -243 179 -224
-17 11 -14 2 17 -51 36 -63 49 -94 66 -173 31 -136 38 -250 21 -331 -12 -62
-12 -89 1 -55 3 9 12 16 19 16 28 0 172 171 225 265 l22 40 -7 -100 c-5 -86
-11 -132 -30 -240 -5 -31 -16 -76 -32 -130 -15 -51 -20 -63 -46 -125 -8 -19
-18 -45 -21 -57 -11 -36 -149 -282 -201 -358 -77 -112 -190 -238 -286 -316
-87 -72 -105 -86 -189 -144 -47 -32 -89 -62 -95 -67 -5 -4 -39 -29 -75 -55
-35 -27 -64 -52 -63 -58 10 -47 302 47 460 148 24 15 47 27 53 27 5 0 10 5 10
10 0 6 6 10 13 10 6 0 28 14 47 30 19 17 53 43 75 58 22 15 42 30 43 35 2 4
10 7 18 7 8 0 14 4 14 8 0 4 22 24 50 45 l50 37 -6 -62 c-3 -35 -8 -79 -11
-98 -3 -19 -7 -46 -8 -60 -14 -131 -29 -165 -127 -284 -99 -120 -431 -445
-572 -559 -21 -18 -64 -53 -95 -78 -31 -25 -94 -72 -141 -104 -47 -33 -89 -63
-95 -67 -19 -17 -251 -162 -320 -202 -116 -66 -185 -107 -185 -110 0 -2 36 10
80 27 44 17 82 29 84 26 2 -2 -2 -38 -9 -79 -7 -41 -17 -102 -21 -135 -13 -94
-8 -399 8 -501 l14 -92 -105 -27 c-58 -15 -119 -29 -136 -31 -16 -3 -52 -9
-78 -14 -26 -6 -108 -10 -182 -10 -118 0 -135 -2 -144 -18 -6 -11 -5 -28 4
-48 14 -34 73 -94 93 -94 6 0 12 -4 12 -10 0 -5 15 -17 33 -26 17 -9 34 -20
37 -24 8 -11 177 -90 193 -90 7 0 17 -3 21 -7 3 -4 12 -8 19 -9 7 -1 48 -13
92 -28 44 -14 104 -31 134 -37 85 -18 124 -40 178 -102 47 -53 91 -90 153
-126 68 -40 185 -101 194 -101 6 0 17 -4 25 -9 11 -7 7 -19 -22 -60 -20 -27
-48 -72 -62 -98 -15 -26 -35 -61 -45 -78 -10 -16 -19 -37 -19 -45 -1 -8 -7
-27 -15 -41 -11 -22 -20 -48 -32 -94 -1 -5 -9 -37 -18 -70 -20 -74 -21 -121
-2 -128 21 -8 78 41 213 182 211 222 336 341 352 336 102 -30 497 -61 826 -64
110 -1 214 -4 230 -6 17 -3 42 -7 57 -9 15 -3 38 -12 50 -20 12 -9 30 -16 40
-16 11 0 18 -7 18 -19 0 -16 -73 -237 -97 -291 -3 -8 -7 -17 -8 -20 -20 -79
-75 -175 -163 -284 -36 -44 -68 -83 -71 -86 -4 -3 -24 -27 -46 -55 -22 -27
-55 -68 -75 -91 -114 -133 -151 -175 -206 -234 -33 -36 -81 -87 -105 -113 -80
-89 -143 -149 -219 -212 -79 -65 -97 -76 -290 -171 -73 -36 -239 -100 -305
-117 -11 -3 -58 -19 -105 -37 -47 -17 -120 -42 -162 -55 -42 -13 -86 -28 -97
-34 -11 -6 -30 -11 -43 -11 -13 0 -28 -4 -33 -9 -9 -9 -301 -104 -307 -101 -2
1 -21 -5 -43 -14 -58 -22 -317 -83 -410 -97 -150 -21 -316 -23 -392 -4 -37 9
-80 23 -95 31 -23 12 -335 256 -348 273 -3 4 -25 22 -50 41 -89 69 -244 195
-325 263 -73 63 -405 396 -495 497 -36 40 -74 83 -85 94 -11 12 -49 55 -85 96
-36 41 -70 79 -76 85 -18 17 -116 145 -111 145 8 0 191 -70 208 -79 58 -33
582 -224 644 -235 124 -23 361 -110 465 -172 19 -11 44 -24 55 -27 17 -6 16
-3 -5 14 -65 57 -353 170 -540 214 -94 22 -462 158 -805 297 -66 27 -66 27
-154 143 -103 136 -136 185 -181 268 l-39 71 102 18 c56 10 116 20 132 23 39
6 70 13 70 15 0 2 20 7 59 15 16 3 37 10 48 16 10 5 18 7 18 5 0 -3 12 -1 28
5 15 6 92 28 172 49 184 48 212 59 291 111 68 45 129 105 181 179 23 34 57 60
134 105 57 33 104 63 104 68 0 4 6 7 13 7 16 0 131 84 189 139 54 50 85 106
69 125 -12 15 -42 14 -101 -4 -25 -7 -49 -15 -55 -16 -5 -2 -52 -17 -103 -35
-51 -17 -94 -30 -96 -28 -1 2 3 60 10 129 21 201 18 341 -10 487 -30 157 -56
316 -52 321 12 11 261 -73 390 -133 33 -15 87 -38 121 -50 33 -13 85 -34 115
-48 65 -30 134 -54 175 -61 l30 -5 -30 15 c-26 13 -27 14 -5 10 14 -3 31 -6
38 -6 7 0 10 -4 7 -10 -4 -6 1 -7 11 -3 13 5 16 2 12 -9 -5 -12 1 -13 37 -8
50 8 298 127 290 140 -3 4 4 6 14 3 13 -3 29 4 43 18 13 13 45 35 71 48 58 30
55 39 -4 12 -24 -11 -107 -45 -184 -75 -124 -49 -150 -56 -225 -59 -47 -2
-101 1 -120 5 -125 32 -170 47 -700 219 -530 172 -575 188 -855 312 -82 36
-275 136 -314 162 -19 14 -39 25 -44 25 -9 0 -108 72 -157 115 -83 72 -161
167 -206 250 -6 11 -34 61 -63 112 -53 95 -144 294 -136 301 2 2 14 -3 26 -12
13 -9 45 -19 71 -22 26 -4 48 -10 48 -14 0 -6 51 -15 215 -37 59 -8 331 -7
397 1 44 6 58 12 63 27 11 33 -3 38 -61 22 -31 -8 -73 -12 -93 -9 -61 8 -230
47 -272 61 -21 8 -39 12 -39 8 0 -3 -7 0 -15 7 -8 7 -15 10 -15 7 0 -8 -59 14
-135 49 -33 15 -63 27 -67 26 -3 -1 -12 5 -18 13 -7 8 -18 15 -24 15 -18 0
-69 58 -109 125 -42 70 -144 284 -177 370 -13 33 -26 65 -30 70 -6 9 -52 128
-95 248 l-14 39 43 -39 c75 -68 110 -92 179 -128 67 -34 82 -31 52 11 -48 70
-72 396 -38 514 8 25 15 59 18 76 5 43 48 133 113 239 63 102 249 296 317 330
22 11 42 23 45 26 9 11 164 66 234 83 96 24 277 32 363 16 73 -13 220 -68 290
-107 24 -13 43 -20 43 -15 0 5 -16 17 -35 27 -41 23 -40 29 4 14 50 -17 47 -4
-6 29 -26 17 -66 44 -88 59 -22 16 -66 42 -97 58 -31 16 -56 31 -54 32 4 4
169 -34 219 -50 36 -12 45 -12 37 -2 -29 35 -148 67 -294 79 -85 7 -98 16 -25
17 30 0 74 4 99 8 l45 7 -50 15 c-103 32 -388 19 -550 -25 -27 -8 -78 -20
-112 -27 -35 -7 -63 -17 -63 -22 0 -4 -6 -7 -12 -5 -37 8 -253 -104 -342 -176
-86 -71 -129 -118 -212 -236 -120 -170 -173 -284 -189 -407 -4 -29 -11 -55
-16 -59 -5 -3 -9 -2 -9 1 0 3 -9 50 -19 103 -26 136 -40 217 -47 290 -5 55 -3
70 21 119 14 31 37 88 50 127 36 111 44 124 114 174 95 67 287 262 368 372 83
115 115 174 159 294 l33 91 1 -120 c1 -159 19 -305 38 -305 4 0 16 17 27 38
10 20 27 48 36 62 9 14 31 54 50 90 18 36 51 88 74 115 162 197 245 439 289
849 3 27 7 50 9 52 1 2 8 -50 15 -114 16 -145 18 -161 32 -242 7 -36 16 -87
20 -115 12 -68 35 -172 64 -285 16 -61 21 -96 14 -99 -6 -2 -5 -7 3 -11 7 -5
23 -42 35 -82 57 -187 96 -255 137 -242 61 19 68 23 63 46 -3 13 -12 57 -20
98 -9 41 -18 100 -20 130 -3 30 -8 81 -11 113 -4 31 -5 57 -1 57 3 0 29 -11
58 -25 28 -14 58 -25 65 -25 29 0 1 19 -65 45 l-69 27 -17 196 c-9 109 -19
226 -21 262 -7 100 -8 450 -1 457 3 4 6 -17 6 -47 0 -55 25 -240 40 -300 5
-19 11 -48 14 -65 9 -52 63 -209 90 -262 33 -66 117 -166 164 -198 41 -27 173
-75 207 -75 12 0 33 -9 47 -20 23 -17 25 -25 21 -77 -2 -32 -15 -109 -29 -172
-32 -142 -29 -145 120 -121 63 10 259 35 356 46 87 10 126 18 221 45 58 17 73
27 118 76 l52 57 -7 -52 c-5 -38 -3 -52 6 -52 11 0 147 123 176 159 9 11 12 8
17 -18 12 -60 59 -142 73 -128 7 7 32 98 52 197 15 67 28 100 65 156 76 116
172 342 190 451 3 15 10 49 16 74 15 65 40 280 43 367 2 39 6 72 9 72 4 0 9
-28 13 -62z m-2024 -20 c10 -54 26 -104 55 -173 5 -11 9 -27 10 -35 6 -49 136
-287 274 -500 8 -14 21 -34 27 -45 6 -11 26 -47 44 -79 l34 -59 -35 7 c-19 4
-45 10 -58 12 -61 12 -162 77 -206 133 -48 60 -122 286 -146 445 -6 39 -12 81
-14 94 -2 13 -7 56 -10 95 -3 40 -8 93 -10 120 -3 34 -1 47 9 47 8 0 18 -23
26 -62z m-92 -135 c-1 -158 8 -384 18 -437 2 -10 6 -51 9 -90 4 -39 13 -141
21 -226 8 -85 17 -180 20 -210 3 -30 14 -100 25 -154 11 -54 21 -104 22 -109
1 -6 -13 -15 -32 -20 -44 -14 -52 -3 -91 122 -29 94 -89 317 -96 356 -4 26
-52 257 -64 312 -6 24 -15 86 -20 138 -6 52 -13 104 -15 115 -5 26 -14 154
-17 244 -3 69 -3 69 27 78 17 5 39 14 50 19 29 14 107 38 127 38 16 1 18 -13
16 -176z m5497 144 c-2 -12 -6 -75 -10 -138 -4 -64 -10 -121 -14 -128 -4 -6
-21 8 -44 37 -20 26 -54 66 -76 90 -35 40 -38 46 -28 73 13 33 33 37 76 14
l29 -14 12 44 c10 36 17 45 35 45 17 0 22 -5 20 -23z m-8802 -180 c51 -27 65
-67 22 -67 -42 0 -204 -38 -222 -52 -7 -6 -16 -7 -22 -4 -5 3 -11 3 -13 -2 -1
-4 -39 -25 -83 -47 -44 -21 -82 -42 -85 -45 -3 -4 -25 -19 -50 -34 -25 -15
-56 -34 -69 -44 l-24 -16 7 39 c17 92 104 207 191 253 101 53 266 62 348 19z
m3033 -60 c-15 -186 -52 -384 -97 -522 -32 -96 -115 -262 -154 -311 -19 -23
-15 -5 24 91 94 232 188 572 219 783 8 60 14 33 8 -41z m-2981 -59 c3 -7 7
-26 9 -43 3 -16 7 -42 10 -57 5 -22 3 -28 -11 -28 -25 0 -132 -53 -168 -84
-24 -20 -15 -17 46 14 42 22 90 41 109 42 32 3 33 3 60 -78 30 -90 65 -154 84
-154 7 0 21 9 31 20 10 11 20 18 22 16 2 -2 -7 -52 -20 -112 -28 -126 -34
-165 -42 -289 -5 -64 -17 -119 -41 -191 -19 -56 -37 -110 -39 -120 -15 -72
-80 -307 -96 -353 -12 -31 -33 -90 -48 -131 -15 -41 -35 -90 -44 -107 -10 -18
-15 -33 -11 -33 4 0 2 -6 -4 -13 -6 -6 -19 -35 -30 -62 -27 -69 -133 -300
-168 -367 -8 -14 -14 -33 -14 -42 0 -9 -5 -16 -12 -16 -6 0 -9 -3 -5 -6 3 -4
-2 -23 -13 -44 -33 -65 -90 -223 -97 -268 -4 -30 -9 -40 -16 -33 -7 7 -11 70
-11 160 -1 83 -5 146 -9 142 -15 -15 -17 -251 -3 -326 17 -88 34 -135 79 -210
113 -192 295 -277 627 -293 l130 -7 -21 -40 c-12 -22 -28 -53 -37 -70 -9 -16
-35 -48 -58 -71 -44 -42 -74 -49 -129 -30 -30 11 33 -42 69 -58 l28 -13 -29
-11 c-37 -12 -204 -14 -258 -2 -22 5 -69 11 -103 15 -35 3 -75 10 -89 16 -13
5 -37 9 -52 9 -16 0 -48 7 -72 16 -24 9 -57 18 -73 20 -34 5 -79 24 -215 92
-148 74 -202 109 -281 181 -25 23 -49 45 -55 49 -5 5 -32 34 -60 66 -27 32
-55 63 -60 70 -16 18 -59 88 -80 131 -11 22 -23 42 -27 43 -5 2 -8 11 -8 21 0
9 -4 21 -9 27 -13 14 -51 119 -73 204 -15 57 -20 118 -23 255 -2 99 -1 200 3
225 5 25 6 55 2 67 -5 22 -7 21 -69 -22 -35 -25 -83 -62 -105 -83 -23 -21 -49
-41 -58 -45 -10 -3 -18 -11 -18 -17 0 -5 -6 -10 -14 -10 -8 0 -16 -3 -18 -7
-13 -30 -204 -155 -277 -183 -94 -35 -97 -16 -10 61 88 78 218 199 236 219
135 154 167 205 309 492 42 84 87 173 99 198 99 194 157 302 183 344 18 28 32
55 32 62 0 7 3 14 8 16 4 2 34 43 67 92 131 194 147 214 292 361 51 52 110
106 133 121 22 15 40 31 40 35 0 5 5 9 11 9 5 0 27 13 47 29 65 51 265 156
314 165 15 2 32 7 36 10 5 3 29 8 52 11 24 3 46 7 48 10 11 10 63 4 67 -7z
m144 -115 c33 -57 37 -58 78 -24 43 35 58 38 72 14 7 -14 -5 -38 -56 -113 -89
-128 -91 -130 -109 -105 -15 20 -64 165 -64 190 0 17 39 55 57 55 7 0 17 -8
22 -17z m5491 -363 c0 -5 -2 -10 -4 -10 -3 0 -8 5 -11 10 -3 6 -1 10 4 10 6 0
11 -4 11 -10z m-1900 -130 c43 -8 71 -19 83 -33 26 -30 9 -31 -70 -8 -57 17
-183 83 -183 96 0 2 24 -7 53 -20 28 -13 81 -29 117 -35z m2503 -477 c-13 -2
-35 -2 -50 0 -16 2 -5 4 22 4 28 0 40 -2 28 -4z m-258 -43 c-16 -11 -55 -25
-85 -31 -30 -7 -63 -16 -72 -21 -10 -5 -18 -5 -18 -1 0 14 62 42 125 57 82 19
84 19 50 -4z m262 4 c-3 -3 -12 -4 -19 -1 -8 3 -5 6 6 6 11 1 17 -2 13 -5z
m359 -70 c18 -14 18 -14 -6 -3 -31 14 -36 19 -24 19 6 0 19 -7 30 -16z m59
-24 c3 -5 2 -10 -4 -10 -5 0 -13 5 -16 10 -3 6 -2 10 4 10 5 0 13 -4 16 -10z
m431 -137 c91 -93 99 -118 12 -33 -54 52 -98 97 -98 99 0 8 55 -34 86 -66z
m-4123 0 c-7 -2 -19 -2 -25 0 -7 3 -2 5 12 5 14 0 19 -2 13 -5z m-153 -41 c0
-4 -30 -13 -67 -20 -37 -7 -86 -21 -110 -32 -24 -10 -43 -17 -43 -14 0 10 90
45 152 58 35 8 64 14 66 15 1 1 2 -2 2 -7z m63 1 c-7 -2 -21 -2 -30 0 -10 3
-4 5 12 5 17 0 24 -2 18 -5z m364 -41 c12 -7 -15 -8 -139 -3 -16 1 -28 5 -28
10 0 21 127 15 167 -7z m-358 4 c-8 -7 -104 -18 -96 -10 4 4 26 10 50 14 40 6
55 5 46 -4z m-189 -21 c0 -2 -10 -9 -22 -15 -22 -11 -22 -10 -4 4 21 17 26 19
26 11z m4270 -30 c13 -14 21 -25 18 -25 -2 0 -15 11 -28 25 -13 14 -21 25 -18
25 2 0 15 -11 28 -25z m221 -45 c23 -38 45 -70 50 -70 16 0 79 -141 99 -221
35 -136 24 -139 -15 -3 -36 123 -54 161 -122 251 -32 43 -64 86 -71 95 -11 15
-11 18 2 18 8 0 34 -31 57 -70z m-4336 50 c-3 -5 -14 -10 -23 -9 -14 0 -13 2
3 9 27 11 27 11 20 0z m-2876 -87 c-6 -89 -32 -168 -77 -243 -12 -19 -25 -42
-29 -50 -3 -8 -9 -17 -12 -20 -4 -3 -18 -23 -33 -45 -15 -22 -38 -53 -53 -70
l-26 -30 16 35 c38 82 45 98 70 155 15 33 31 68 36 77 5 10 27 64 48 120 54
142 60 158 63 158 2 0 0 -39 -3 -87z m7202 -14 c27 -36 49 -71 49 -77 0 -5 7
-12 15 -16 8 -3 15 -12 15 -21 0 -9 7 -29 15 -44 8 -16 17 -48 20 -72 l5 -44
-14 35 c-18 47 -64 138 -86 170 -25 37 -94 142 -104 160 -21 35 39 -29 85 -91z
m49 59 c0 -6 -7 -5 -15 2 -8 7 -15 17 -15 22 0 6 7 5 15 -2 8 -7 15 -17 15
-22z m-3793 6 c-3 -3 -12 -4 -19 -1 -8 3 -5 6 6 6 11 1 17 -2 13 -5z m3813
-34 c0 -5 -2 -10 -4 -10 -3 0 -8 5 -11 10 -3 6 -1 10 4 10 6 0 11 -4 11 -10z
m-52 -133 c41 -72 95 -231 107 -314 11 -81 -10 -42 -54 95 -58 181 -62 192
-83 227 -10 17 -23 41 -30 55 -6 14 -19 34 -27 46 -9 11 1 3 21 -18 20 -22 50
-63 66 -91z m-116 47 c47 -69 61 -99 33 -70 -8 8 -15 17 -15 20 0 8 -72 109
-85 119 -6 5 -4 7 5 4 8 -2 36 -35 62 -73z m218 46 c0 -5 -2 -10 -4 -10 -3 0
-8 5 -11 10 -3 6 -1 10 4 10 6 0 11 -4 11 -10z m-159 -75 c41 -75 60 -133 40
-121 -6 4 -11 15 -11 25 0 9 -20 50 -45 90 -48 78 -51 85 -34 79 7 -2 29 -35
50 -73z m-4621 52 c0 -2 -10 -12 -22 -23 l-23 -19 19 23 c18 21 26 27 26 19z
m4810 -42 c6 -19 10 -41 7 -48 -2 -6 -8 5 -12 26 -4 20 -11 40 -16 43 -5 3 -9
10 -9 15 0 21 19 -2 30 -36z m-6956 -243 c20 -35 36 -66 36 -69 0 -3 26 -39
58 -80 31 -41 62 -83 67 -92 6 -9 13 -18 16 -21 10 -9 93 -124 127 -175 35
-54 66 -130 76 -185 3 -19 12 -69 20 -110 23 -124 26 -159 26 -315 1 -231 -33
-379 -133 -577 -55 -108 -175 -298 -189 -298 -4 0 -5 6 -3 13 5 12 6 27 22
187 13 132 6 579 -12 720 -2 19 -9 80 -15 135 -7 55 -14 109 -16 120 -8 36
-23 149 -30 209 -3 33 -9 54 -13 47 -7 -10 -15 15 -37 114 -1 6 -21 82 -44
170 -65 254 -64 246 -49 356 l12 93 23 -89 c12 -51 38 -118 58 -153z m2046
194 c0 -2 -7 -7 -16 -10 -8 -3 -12 -2 -9 4 6 10 25 14 25 6z m-40 -29 c0 -2
-12 -14 -27 -28 l-28 -24 24 28 c23 25 31 32 31 24z m4792 -82 c19 -67 45
-235 36 -235 -4 0 -8 2 -8 4 0 2 -5 28 -10 57 -6 30 -13 66 -15 81 -3 15 -16
57 -29 93 -23 65 -23 92 1 58 8 -9 18 -36 25 -58z m38 -27 c6 -24 18 -65 27
-91 8 -27 12 -51 9 -54 -3 -4 -6 1 -6 10 0 10 -4 17 -9 17 -4 0 -14 28 -21 63
-7 34 -17 70 -22 80 -5 10 -5 17 1 17 6 0 15 -19 21 -42z m-5050 -1 c0 -2 -12
-14 -27 -28 l-28 -24 24 28 c23 25 31 32 31 24z m-108 -159 c-27 -46 -62 -117
-77 -158 -29 -75 -31 -81 -34 -100 0 -5 -5 -10 -10 -10 -11 0 8 80 24 100 7 8
22 43 33 78 18 52 100 186 110 177 1 -1 -19 -40 -46 -87z m102 47 c-9 -14 -18
-25 -20 -25 -2 0 2 11 8 25 6 14 15 25 20 25 5 0 1 -11 -8 -25z m-144 -25 c-6
-11 -13 -20 -16 -20 -2 0 0 9 6 20 6 11 13 20 16 20 2 0 0 -9 -6 -20z m5370 6
c0 -3 -4 -8 -10 -11 -5 -3 -10 -1 -10 4 0 6 5 11 10 11 6 0 10 -2 10 -4z
m-5264 -53 c-38 -75 -100 -278 -90 -295 3 -4 1 -41 -5 -81 -6 -39 -13 -103
-17 -141 -10 -107 -25 -56 -20 71 5 114 14 167 47 267 24 71 90 218 96 212 3
-2 -2 -17 -11 -33z m5150 -59 c-9 -24 -25 -7 -21 24 2 15 4 36 5 47 1 12 6 5
12 -18 6 -20 7 -44 4 -53z m-5295 25 c-11 -24 -20 -41 -20 -37 -1 12 31 89 35
85 3 -2 -4 -24 -15 -48z m128 -108 c-21 -62 -40 -127 -40 -145 -1 -24 -3 -26
-6 -8 -7 34 13 114 48 198 17 41 33 74 34 72 2 -2 -14 -54 -36 -117z m-3543 1
c2 -113 33 -305 55 -337 3 -5 9 -23 13 -40 14 -57 94 -210 152 -292 80 -111
155 -189 249 -258 22 -17 42 -33 43 -37 2 -5 9 -8 16 -8 7 0 21 -9 31 -20 10
-11 22 -20 27 -20 6 0 21 -9 35 -20 l26 -20 -24 0 c-44 0 -183 29 -236 49
-245 91 -375 259 -419 541 -20 130 -16 329 8 458 11 56 21 102 22 102 0 0 2
-44 2 -98z m3377 73 c-3 -9 -8 -14 -10 -11 -3 3 -2 9 2 15 9 16 15 13 8 -4z
m86 -77 c-17 -46 -39 -123 -50 -173 l-19 -90 5 95 c3 52 10 97 15 98 6 2 10
11 10 19 0 21 51 133 61 133 4 0 -6 -37 -22 -82z m-102 30 c-3 -8 -6 -5 -6 6
-1 11 2 17 5 13 3 -3 4 -12 1 -19z m-10 -40 c-3 -8 -6 -5 -6 6 -1 11 2 17 5
13 3 -3 4 -12 1 -19z m207 -32 c-9 -26 -18 -45 -20 -43 -2 2 3 25 12 51 9 26
18 45 20 43 2 -2 -3 -25 -12 -51z m-223 -41 c-6 -35 -9 -41 -10 -20 -1 30 9
78 15 73 2 -2 -1 -26 -5 -53z m5320 22 c-13 -12 -20 -15 -16 -7 14 26 28 41
33 35 3 -3 -5 -16 -17 -28z m-5287 -166 c-4 -61 -10 -111 -14 -111 -4 0 -6 12
-4 28 2 15 4 58 5 97 1 38 4 78 7 88 10 39 12 4 6 -102z m177 88 c-2 -13 -5
-31 -6 -39 -2 -8 -4 -69 -6 -135 -1 -99 -3 -111 -9 -70 -18 109 -9 280 14 272
6 -2 9 -15 7 -28z m-49 -121 c-2 -46 -8 -87 -14 -93 -7 -7 -9 0 -4 24 3 18 6
60 6 92 0 33 3 59 8 59 4 0 6 -37 4 -82z m-134 -139 c-3 -8 -7 -3 -11 10 -4
17 -3 21 5 13 5 -5 8 -16 6 -23z m119 -11 c-3 -8 -6 -5 -6 6 -1 11 2 17 5 13
3 -3 4 -12 1 -19z m20 -53 c10 -32 10 -34 -8 -24 -11 5 -19 20 -19 34 0 36 15
31 27 -10z m69 -130 c16 -14 24 -25 18 -25 -6 0 -21 11 -34 25 -30 32 -21 32
16 0z m-1677 -82 c27 -193 31 -718 7 -873 -6 -39 -18 -117 -21 -135 -2 -11 -4
-23 -4 -26 -2 -12 -61 -82 -143 -168 l-81 -86 7 40 c4 22 20 94 36 160 25 102
71 320 110 520 42 215 70 447 70 583 0 34 2 62 4 62 2 0 9 -35 15 -77z m2551
-837 c0 -2 -9 -6 -20 -9 -11 -3 -20 -1 -20 4 0 5 9 9 20 9 11 0 20 -2 20 -4z
m4134 -92 c-22 -105 -30 -147 -44 -224 -12 -60 -130 -316 -180 -390 -10 -14
-30 -47 -44 -75 -43 -79 -238 -372 -274 -411 -11 -11 -21 -24 -23 -30 -2 -5
-44 -63 -94 -127 -49 -65 -97 -128 -105 -141 -8 -12 -31 -42 -51 -67 -32 -39
-75 -107 -104 -163 -14 -27 -307 -156 -355 -156 -6 0 -10 17 -10 38 -1 20 -7
64 -14 97 -13 63 -15 391 -2 450 4 17 13 68 22 115 8 47 17 93 20 103 6 20 56
54 235 158 67 39 131 80 142 90 12 10 24 19 28 19 4 0 14 6 21 13 7 6 29 24
50 39 20 15 42 33 50 41 7 7 35 30 63 52 74 59 97 78 115 95 24 23 189 171
234 211 88 78 254 249 306 316 13 17 26 31 27 29 2 -1 -4 -38 -13 -82z m-6768
-452 c-3 -5 -7 -20 -10 -34 -13 -75 -111 -398 -136 -453 -5 -11 -31 -69 -58
-130 -27 -60 -61 -128 -75 -149 l-27 -39 0 39 c0 61 29 290 50 394 10 52 24
123 31 158 9 46 18 66 33 74 12 6 35 22 51 35 17 13 55 44 85 68 57 46 65 51
56 37z m2329 -153 c28 -19 52 -37 55 -40 11 -12 179 -99 260 -134 47 -20 99
-42 115 -50 80 -35 123 -53 155 -65 19 -7 40 -17 45 -21 6 -4 22 -10 35 -13
14 -2 68 -20 120 -40 52 -19 154 -54 226 -77 l131 -42 40 -106 c51 -134 59
-159 78 -251 19 -87 29 -298 16 -332 -5 -13 -12 -52 -15 -88 -9 -79 -31 -198
-39 -206 -11 -12 -144 -23 -223 -19 -197 9 -375 96 -545 266 -81 81 -234 278
-224 288 4 3 9 1 13 -5 38 -54 256 -168 382 -199 84 -21 152 -33 184 -34 55
-1 39 8 -35 20 -97 15 -194 46 -298 96 -225 107 -343 244 -464 538 -21 51 -69
189 -72 205 0 3 -8 28 -17 55 -9 28 -26 86 -38 130 -12 44 -33 112 -46 152
-13 39 -24 83 -24 98 0 25 3 24 68 -33 37 -32 90 -74 117 -93z m4324 74 c-6
-21 -17 -52 -25 -70 -8 -17 -14 -37 -14 -44 0 -13 -14 -59 -37 -124 -8 -22
-16 -47 -18 -57 -2 -9 -11 -30 -19 -47 -9 -16 -16 -34 -16 -39 0 -5 -18 -48
-40 -96 -22 -47 -40 -89 -41 -94 -1 -4 -9 -18 -18 -32 -9 -14 -27 -47 -40 -75
-65 -137 -182 -255 -329 -334 -51 -28 -99 -51 -106 -51 -6 0 -22 -7 -34 -16
-57 -40 -2 53 128 216 42 52 96 122 121 155 24 33 54 71 67 85 12 14 22 29 22
35 0 5 14 26 30 45 16 19 34 40 40 47 5 7 10 17 10 23 0 5 4 10 8 10 5 0 20
21 35 48 14 26 34 56 44 68 22 25 38 49 60 92 9 17 20 32 25 32 4 0 8 4 8 10
0 5 17 36 38 69 21 32 52 86 68 120 33 68 47 79 33 24z m-6735 -885 c-6 -116
-16 -244 -20 -250 -2 -3 -7 -30 -9 -59 -7 -64 -38 -189 -67 -267 -48 -129
-153 -289 -248 -378 -25 -25 -40 -18 -40 19 0 9 -4 17 -9 17 -5 0 -14 15 -21
33 -7 17 -19 47 -27 65 -8 18 -21 58 -29 90 -8 31 -32 112 -54 178 -43 130
-44 135 -32 132 8 -3 74 23 82 32 3 3 34 23 70 44 36 22 79 50 95 64 56 45
235 224 272 273 20 27 38 49 38 49 1 0 0 -19 -1 -42z m-88 -660 c-4 -13 -9
-34 -11 -48 -7 -41 -64 -239 -91 -315 -14 -38 -38 -85 -53 -103 l-29 -33 -40
61 c-59 88 -59 90 -2 135 28 22 50 42 50 45 0 3 10 16 23 30 27 30 80 113 122
193 31 60 42 72 31 35z m6564 -113 c0 -2 -48 -53 -107 -113 -123 -124 -163
-168 -163 -176 0 -13 -74 -72 -110 -88 -36 -16 -39 -15 -96 10 -33 15 -61 29
-64 32 -3 3 -16 13 -30 21 -40 26 -190 170 -190 183 0 8 40 11 133 12 150 1
341 26 437 57 36 12 68 21 72 22 3 0 10 3 14 8 4 4 15 7 25 7 9 0 30 7 45 15
32 16 34 17 34 10z m-6276 -392 c-24 -43 -47 -92 -50 -109 l-6 -33 -76 -3
c-43 -2 -104 -2 -137 0 l-60 3 75 31 c72 30 201 109 265 162 17 14 31 25 32
26 0 0 -19 -35 -43 -77z m8374 -514 c11 -41 19 -75 18 -76 -1 -1 -34 16 -73
40 -83 48 -81 41 -32 187 16 46 29 93 30 105 0 11 9 -25 19 -81 10 -56 27
-134 38 -175z m-8115 -576 c3 -61 10 -121 17 -132 12 -23 40 -27 58 -9 23 23
21 1 -5 -47 -42 -81 -163 -325 -163 -330 0 -3 -13 -31 -29 -62 -58 -114 -130
-273 -131 -288 0 -3 -11 -26 -25 -53 -14 -26 -25 -50 -25 -53 0 -4 -7 -23 -15
-43 -8 -20 -14 -37 -13 -38 2 -2 -8 -20 -20 -40 -13 -21 -21 -38 -18 -38 4 0
0 -10 -7 -22 -8 -13 -25 -52 -38 -87 -21 -55 -31 -68 -79 -101 -69 -47 -140
-115 -140 -134 0 -8 -4 -17 -10 -21 -10 -6 -5 134 9 230 5 33 12 98 16 145 9
116 13 142 40 230 10 34 15 71 20 154 5 90 9 105 39 152 34 56 98 134 156 194
41 42 71 95 95 169 10 29 23 65 31 79 l13 26 10 -25 c24 -61 113 -113 153 -88
10 6 10 15 0 42 -24 67 -9 195 32 275 10 19 19 32 20 30 2 -1 6 -53 9 -115z"/>
<path d="M12487 11344 c-14 -14 -7 -35 11 -32 9 2 17 10 17 17 0 16 -18 25
-28 15z"/>
<path d="M12219 11228 c-7 -25 -4 -40 8 -45 17 -7 46 24 37 38 -5 8 -43 13
-45 7z"/>
<path d="M3961 10881 c-16 -10 -8 -41 11 -41 23 0 41 18 35 34 -7 18 -25 20
-46 7z"/>
<path d="M4213 10824 c-8 -22 5 -46 24 -42 25 5 24 50 0 54 -10 1 -21 -4 -24
-12z"/>
<path d="M10114 9588 c-32 -3 -70 -11 -84 -17 -21 -9 -17 -9 20 -4 195 26 404
2 553 -63 32 -14 61 -24 63 -21 2 2 -27 18 -67 36 -131 59 -329 87 -485 69z"/>
<path d="M10725 9453 c6 -6 57 -40 115 -78 121 -78 264 -215 328 -315 23 -36
42 -58 42 -49 0 28 -100 161 -177 236 -80 77 -213 172 -278 199 -22 9 -35 12
-30 7z"/>
<path d="M9860 9235 c-111 -23 -310 -145 -310 -190 0 -7 -3 -15 -8 -17 -14 -6
-78 -103 -100 -150 -37 -81 -73 -220 -76 -294 -3 -86 15 -226 36 -274 8 -19
26 -48 39 -65 14 -16 38 -50 54 -74 29 -42 80 -83 138 -108 31 -14 227 -68
318 -88 31 -6 60 -15 66 -18 18 -12 92 -17 114 -8 18 6 13 9 -30 14 -29 3 -58
10 -65 15 -24 19 -165 61 -241 71 -116 17 -149 28 -195 66 -23 19 -45 35 -50
35 -9 0 -65 132 -74 175 -3 17 -9 41 -12 55 -10 47 -17 158 -10 184 14 56 92
58 145 4 26 -27 31 -40 31 -81 0 -43 2 -48 19 -42 14 4 23 -3 36 -32 22 -46
30 -54 75 -75 96 -45 185 -30 265 44 29 26 58 62 65 79 15 36 28 35 127 -11
l61 -28 7 25 c12 50 78 93 114 74 30 -16 41 -36 61 -107 23 -79 18 -130 -12
-140 -16 -5 -19 -12 -14 -37 14 -78 -70 -179 -181 -218 -29 -10 -50 -25 -55
-38 -9 -25 -8 -25 64 -6 100 26 188 91 259 192 81 115 91 369 26 608 -17 61
-73 177 -98 204 -11 11 -19 23 -19 26 0 3 -29 36 -65 73 -87 92 -167 132 -310
157 -92 16 -119 16 -195 0z m56 -77 c87 -67 117 -147 93 -246 -13 -54 -44 -91
-96 -115 -18 -8 -23 -18 -23 -48 0 -69 -66 -100 -131 -62 -27 16 -47 62 -35
81 3 4 -20 17 -50 27 -69 24 -109 66 -118 128 -8 54 12 101 71 166 71 78 228
116 289 69z m199 -23 c39 -17 21 -18 -25 0 -19 7 -28 14 -20 14 8 0 29 -6 45
-14z m20 -75 c3 -6 -1 -7 -9 -4 -18 7 -21 14 -7 14 6 0 13 -4 16 -10z m45 -18
c0 -4 16 -16 35 -26 19 -11 34 -21 32 -23 -4 -4 -97 47 -97 53 0 2 7 4 15 4 8
0 15 -3 15 -8z m-6 -121 c4 -5 -3 -7 -14 -4 -23 6 -26 13 -6 13 8 0 17 -4 20
-9z m187 -18 l24 -27 -24 15 c-14 9 -27 21 -29 27 -6 19 3 14 29 -15z m-35
-68 c20 -17 26 -27 19 -34 -8 -8 -24 1 -54 28 -36 33 -39 38 -18 34 13 -3 37
-15 53 -28z m72 -101 c15 -33 8 -30 -18 6 -14 20 -16 28 -7 24 8 -3 19 -16 25
-30z m-663 -272 c-3 -3 -11 0 -18 7 -9 10 -8 11 6 5 10 -3 15 -9 12 -12z"/>
<path d="M6515 9204 c-111 -27 -170 -46 -235 -77 -73 -34 -168 -96 -190 -123
-8 -10 6 -3 33 16 78 57 154 100 176 100 4 0 26 9 48 20 35 17 117 39 203 55
14 2 57 7 95 11 39 3 72 8 74 10 11 10 -151 1 -204 -12z"/>
<path d="M5913 8856 c-139 -146 -250 -331 -259 -430 l-4 -41 14 43 c15 47 51
129 66 152 5 8 19 31 30 51 27 51 125 172 199 246 33 34 61 64 61 67 0 19 -28
-4 -107 -88z"/>
<path d="M6775 8901 c-44 -15 -91 -33 -105 -38 -44 -19 -148 -103 -170 -139
-12 -19 -28 -41 -35 -48 -25 -25 -86 -169 -101 -240 -16 -73 -21 -260 -9 -318
15 -75 79 -246 109 -295 42 -67 96 -126 143 -157 52 -34 146 -59 191 -52 21 3
45 6 54 7 37 1 26 17 -20 29 -26 7 -58 19 -72 25 -14 7 -37 18 -52 25 -16 8
-28 21 -28 30 0 18 -45 44 -60 35 -19 -12 -92 91 -110 154 -7 25 -6 31 7 31 9
0 25 7 35 17 11 9 18 11 18 5 0 -7 15 -12 36 -12 24 0 33 4 28 12 -5 8 -2 9
10 5 10 -4 20 -7 22 -7 2 0 4 -6 4 -14 0 -24 101 21 133 59 15 19 41 44 58 56
l30 21 18 -21 c46 -53 167 -74 229 -40 73 41 132 121 132 179 0 13 8 24 20 27
14 4 20 14 20 32 0 48 42 142 78 174 19 17 20 17 39 -15 11 -18 20 -36 21 -40
2 -4 12 -29 23 -55 35 -83 41 -135 23 -226 -12 -59 -27 -99 -55 -144 -22 -34
-39 -69 -39 -77 0 -16 -53 -64 -84 -76 -12 -4 -39 -10 -62 -13 -67 -10 -163
-62 -232 -126 -18 -16 -48 -33 -67 -37 -19 -3 -35 -10 -35 -15 0 -21 60 -6
135 32 330 169 394 210 433 279 11 19 35 71 52 115 37 93 42 179 16 303 -38
185 -166 377 -311 468 -16 10 -32 21 -35 25 -3 3 -37 21 -77 38 -136 59 -236
66 -358 22z m18 -83 c53 -16 102 -68 116 -124 10 -39 8 -53 -14 -119 -28 -86
-28 -85 -16 -85 6 0 22 -11 37 -25 21 -20 25 -30 20 -52 -4 -16 -7 -36 -7 -46
0 -22 -55 -57 -90 -57 -34 0 -79 35 -79 62 0 17 -4 19 -27 13 -16 -3 -58 -9
-94 -12 -66 -5 -67 -5 -108 32 -22 21 -41 43 -41 50 0 7 -5 15 -11 17 -9 3
-13 16 -23 83 -3 25 28 111 51 139 24 28 73 76 105 103 40 33 112 41 181 21z
m426 -619 c-19 -11 -24 -3 -8 14 8 9 16 11 18 5 2 -6 -3 -14 -10 -19z"/>
<path d="M8512 8100 c0 -14 2 -19 5 -12 2 6 2 18 0 25 -3 6 -5 1 -5 -13z"/>
<path d="M10872 8080 c-27 -48 -28 -59 -3 -36 17 16 37 64 29 72 -2 1 -13 -15
-26 -36z"/>
<path d="M10727 7915 c-48 -44 -65 -50 -132 -47 -43 2 -186 20 -215 28 -17 5
-22 4 -15 -4 6 -6 30 -13 55 -17 24 -4 47 -8 51 -10 3 -2 19 -6 35 -9 16 -2
48 -7 71 -11 70 -11 177 37 201 90 16 36 4 30 -51 -20z"/>
<path d="M10228 7903 c7 -3 16 -2 19 1 4 3 -2 6 -13 5 -11 0 -14 -3 -6 -6z"/>
<path d="M10294 7895 c26 -19 42 -19 26 0 -7 8 -20 15 -29 15 -13 -1 -13 -3 3
-15z"/>
<path d="M6140 7585 c0 -10 93 -74 101 -69 5 3 -11 21 -36 40 -41 31 -65 42
-65 29z"/>
<path d="M6816 7564 c-9 -22 3 -32 14 -14 12 19 12 30 1 30 -5 0 -12 -7 -15
-16z"/>
<path d="M6856 7564 c-10 -25 1 -29 14 -5 6 12 7 21 1 21 -5 0 -12 -7 -15 -16z"/>
<path d="M6710 7513 c-8 -3 -50 -18 -92 -34 -88 -33 -166 -38 -243 -14 -58 17
-67 13 -29 -12 22 -14 47 -18 119 -18 91 1 134 11 229 56 54 25 63 39 16 22z"/>
<path d="M9382 7344 c-54 -70 -90 -86 -257 -114 -165 -29 -367 -30 -480 -3
-11 3 -29 7 -40 10 -12 3 -43 -11 -82 -36 -97 -62 -322 -132 -471 -146 -85 -8
-209 18 -294 61 -29 16 -58 18 -58 6 0 -12 34 -42 47 -42 6 0 16 -7 23 -15 7
-8 29 -15 50 -15 l38 0 7 -52 c18 -137 76 -290 151 -395 61 -85 176 -206 223
-235 20 -12 38 -24 41 -27 5 -6 49 -27 100 -49 40 -17 80 -24 153 -28 71 -3
93 11 30 19 -126 15 -235 55 -327 118 -126 86 -236 240 -236 332 0 84 44 159
139 233 l54 43 48 -25 c27 -13 51 -24 55 -24 3 0 36 29 74 65 l67 66 77 -41
c42 -22 87 -40 99 -40 14 0 44 22 80 58 l58 59 84 -34 c47 -18 94 -33 106 -33
11 0 41 20 65 44 40 39 48 43 77 36 142 -32 277 -168 277 -279 0 -49 -50 -188
-91 -252 -58 -89 -213 -245 -258 -260 -20 -6 -40 -15 -45 -20 -6 -5 -18 -9
-27 -9 -10 0 -21 -5 -25 -11 -11 -19 73 0 127 29 52 26 164 138 234 234 27 36
57 97 83 170 82 229 87 321 29 482 -17 47 -18 61 -8 64 23 8 50 40 57 67 12
50 -11 45 -54 -11z m-72 -100 c0 -14 -65 -114 -77 -118 -7 -3 -26 -1 -41 5
-15 6 -49 17 -77 24 -56 15 -67 12 -126 -42 l-39 -35 -100 31 c-55 18 -104 29
-110 26 -6 -4 -31 -29 -57 -56 -57 -61 -74 -62 -171 -9 -85 46 -84 47 -159
-34 -29 -31 -57 -56 -64 -56 -6 0 -34 14 -61 30 -26 17 -51 30 -55 30 -4 0
-29 -19 -56 -42 l-49 -41 -34 18 c-18 10 -41 26 -50 36 -16 18 -15 19 27 20
24 0 55 2 69 5 14 2 55 9 93 15 37 6 91 20 120 31 28 11 66 24 82 31 17 6 73
32 124 58 l95 47 45 -14 c122 -38 414 -25 570 26 57 18 101 25 101 14z"/>
<path d="M9170 5564 l-25 -15 25 7 c14 3 29 10 35 15 15 14 -7 10 -35 -7z"/>
<path d="M10770 3530 c0 -5 7 -7 15 -4 8 4 15 8 15 10 0 2 -7 4 -15 4 -8 0
-15 -4 -15 -10z"/>
<path d="M10736 3521 c-12 -5 -15 -10 -9 -14 6 -4 16 0 23 8 14 17 13 17 -14
6z"/>
<path d="M10590 3463 c-63 -24 -129 -51 -147 -59 -17 -8 -34 -14 -37 -14 -8 0
-479 -174 -541 -200 -11 -5 -63 -25 -115 -45 -145 -56 -170 -66 -245 -100 -39
-18 -77 -38 -85 -46 -11 -11 -127 -103 -159 -126 -2 -2 -1 -6 2 -9 8 -8 63 27
129 82 60 51 121 81 298 150 80 31 164 64 187 75 24 10 47 19 53 19 5 0 24 7
42 15 18 8 101 40 183 70 248 93 540 210 554 222 2 1 2 5 0 7 -2 2 -56 -16
-119 -41z"/>
<path d="M9296 3373 c-6 -14 -5 -15 5 -6 7 7 10 15 7 18 -3 3 -9 -2 -12 -12z"/>
<path d="M3041 9657 c-13 -21 -12 -21 5 -5 10 10 16 20 13 22 -3 3 -11 -5 -18
-17z"/>
<path d="M3509 8673 c-44 -50 -96 -128 -104 -153 -4 -14 8 -2 27 27 18 29 50
75 70 103 42 55 45 65 7 23z"/>
<path d="M3328 8327 c-3 -19 -2 -25 4 -19 6 6 8 18 6 28 -3 14 -5 12 -10 -9z"/>
<path d="M11661 12277 c2 -1 13 -9 24 -17 19 -14 19 -14 6 3 -7 9 -18 17 -24
17 -6 0 -8 -1 -6 -3z"/>
<path d="M7110 12193 c-12 -27 -25 -57 -29 -68 -5 -11 -14 -33 -21 -50 -47
-116 -147 -489 -138 -517 2 -6 16 45 32 113 42 185 83 314 165 517 26 65 19
69 -9 5z"/>
<path d="M9160 12191 c0 -6 4 -13 10 -16 6 -3 7 1 4 9 -7 18 -14 21 -14 7z"/>
<path d="M9190 12121 c0 -5 7 -15 17 -22 15 -13 15 -12 4 9 -12 23 -21 28 -21
13z"/>
<path d="M9221 12050 c6 -16 15 -32 20 -35 4 -3 3 8 -2 25 -6 16 -15 32 -20
35 -4 3 -3 -8 2 -25z"/>
<path d="M9250 11986 c0 -20 64 -200 67 -189 2 6 -8 47 -23 90 -27 79 -43 116
-44 99z"/>
<path d="M9322 11749 c6 -16 12 -28 14 -26 5 5 -13 57 -20 57 -3 0 0 -14 6
-31z"/>
<path d="M9342 11690 c0 -14 2 -19 5 -12 2 6 2 18 0 25 -3 6 -5 1 -5 -13z"/>
<path d="M6912 11500 c0 -14 2 -19 5 -12 2 6 2 18 0 25 -3 6 -5 1 -5 -13z"/>
<path d="M9425 11235 c3 -27 9 -62 11 -77 5 -26 3 -28 -28 -29 -36 -1 -93 -16
-68 -18 8 -1 67 -3 130 -6 63 -2 142 -9 175 -14 33 -6 104 -17 158 -25 54 -9
103 -19 109 -22 8 -5 73 -24 168 -49 59 -15 162 -49 195 -65 135 -62 307 -153
371 -194 28 -18 28 -17 -5 18 -19 20 -40 36 -47 36 -7 0 -14 3 -16 8 -9 20
-319 182 -348 182 -6 0 -48 12 -93 27 -45 15 -85 28 -89 29 -5 1 -9 2 -10 4
-2 1 -12 3 -23 5 -11 2 -58 13 -105 24 -113 27 -121 29 -220 42 -47 6 -94 12
-105 14 -11 2 -45 4 -76 4 l-57 1 -4 65 c-2 36 -10 71 -17 77 -10 11 -11 4 -6
-37z"/>
<path d="M7644 11100 c2 -14 8 -41 11 -60 4 -19 8 -44 10 -55 3 -17 12 -77 40
-270 18 -121 43 -203 31 -97 -4 26 -9 67 -11 92 -7 53 -33 214 -40 250 -4 14
-11 52 -17 85 -6 33 -15 65 -20 70 -6 6 -7 0 -4 -15z"/>
<path d="M12700 11055 c-69 -43 -60 -46 12 -4 60 35 65 39 52 39 -5 0 -34 -16
-64 -35z"/>
<path d="M12630 10357 c0 -9 9 -43 19 -74 11 -32 36 -111 57 -176 20 -65 39
-116 41 -113 4 4 -105 367 -113 375 -2 2 -4 -3 -4 -12z"/>
<path d="M4267 10266 c-28 -42 -59 -99 -68 -126 -9 -24 -9 -24 7 -5 25 33 87
146 82 151 -3 2 -13 -6 -21 -20z"/>
<path d="M12755 9958 c19 -69 59 -187 63 -183 5 5 -57 205 -64 205 -3 0 -3
-10 1 -22z"/>
<path d="M5545 9704 c-4 -49 -8 -96 -10 -104 -6 -37 -15 -213 -10 -208 3 3 10
45 15 94 12 105 17 151 26 220 3 29 2 60 -3 69 -8 13 -12 -6 -18 -71z"/>
<path d="M4325 9530 c-4 -12 -5 -24 -2 -27 3 -2 8 5 12 17 4 12 5 24 2 27 -3
2 -8 -5 -12 -17z"/>
<path d="M4242 9309 c-11 -31 -23 -73 -26 -95 -4 -28 -1 -23 13 22 10 33 24
71 30 83 7 12 11 27 8 34 -2 7 -13 -13 -25 -44z"/>
<path d="M5515 9230 c-3 -5 -1 -10 4 -10 6 0 11 5 11 10 0 6 -2 10 -4 10 -3 0
-8 -4 -11 -10z"/>
<path d="M12192 7730 c0 -14 2 -19 5 -12 2 6 2 18 0 25 -3 6 -5 1 -5 -13z"/>
<path d="M12181 7688 c0 -9 -4 -25 -7 -35 -5 -17 -5 -17 6 0 6 10 9 25 7 35
-4 15 -5 15 -6 0z"/>
<path d="M5610 7535 c1 -5 12 -23 25 -40 14 -16 25 -25 25 -20 -1 6 -12 24
-25 40 -14 17 -25 26 -25 20z"/>
<path d="M11692 7160 c0 -14 2 -19 5 -12 2 6 2 18 0 25 -3 6 -5 1 -5 -13z"/>
<path d="M11672 6880 c0 -19 2 -27 5 -17 2 9 2 25 0 35 -3 9 -5 1 -5 -18z"/>
<path d="M12142 6865 c0 -16 2 -22 5 -12 2 9 2 23 0 30 -3 6 -5 -1 -5 -18z"/>
<path d="M12152 6800 c0 -14 2 -19 5 -12 2 6 2 18 0 25 -3 6 -5 1 -5 -13z"/>
<path d="M11645 6738 c-2 -7 -13 -44 -25 -83 -25 -79 -129 -299 -186 -390 -67
-109 -76 -125 -71 -125 6 0 83 115 130 195 62 106 138 288 161 388 6 26 -1 39
-9 15z"/>
<path d="M2464 6564 c-22 -11 -34 -25 -38 -46 -6 -32 3 -54 12 -29 3 8 16 26
29 39 22 21 30 24 71 18 42 -6 45 -5 27 7 -34 23 -68 27 -101 11z"/>
<path d="M2421 6388 c39 -171 115 -368 208 -537 23 -41 52 -104 65 -140 13
-36 38 -99 55 -139 33 -76 53 -123 56 -132 1 -3 5 -14 10 -25 17 -42 47 -120
45 -120 -2 0 11 -37 25 -70 7 -16 20 -55 30 -85 9 -30 23 -69 31 -87 8 -17 14
-36 14 -43 0 -11 40 -117 66 -175 7 -16 24 -71 37 -122 l24 -92 -21 -19 c-39
-34 -75 -52 -106 -52 -35 0 -40 -17 -7 -25 41 -11 100 17 119 54 14 28 19 31
24 18 12 -33 26 -18 19 21 -9 45 -11 53 -17 72 -3 8 -13 40 -23 70 -10 30 -21
60 -26 65 -7 10 -30 86 -34 115 -1 8 -5 22 -8 30 -9 25 -57 174 -60 185 -12
44 -128 337 -168 422 -16 35 -29 70 -29 78 0 9 -40 99 -90 199 -100 205 -195
432 -215 516 -17 69 -39 86 -24 18z"/>
<path d="M1173 6329 c-26 -12 -47 -32 -57 -53 -17 -36 -11 -76 11 -76 8 0 11
5 8 10 -4 6 -1 24 7 41 15 35 106 85 138 76 11 -3 22 -2 25 3 5 7 -41 20 -74
20 -9 0 -35 -9 -58 -21z"/>
<path d="M1350 6324 c0 -8 21 -24 48 -37 26 -12 49 -24 52 -27 3 -3 23 -14 45
-25 22 -10 52 -28 68 -38 15 -10 27 -15 27 -10 0 4 4 3 8 -3 4 -5 52 -41 107
-79 55 -37 115 -82 133 -99 17 -16 32 -25 32 -19 0 11 -154 160 -205 198 -47
35 -119 72 -221 115 -71 30 -94 36 -94 24z"/>
<path d="M1140 6119 c0 -21 96 -171 182 -284 65 -85 226 -255 242 -255 6 0 -6
17 -25 38 -19 20 -61 69 -92 107 -31 39 -67 84 -81 100 -26 31 -35 42 -86 110
-16 22 -37 49 -46 60 -8 11 -30 46 -47 77 -30 55 -47 71 -47 47z"/>
<path d="M1917 5905 c5 -8 47 -54 94 -102 78 -81 154 -168 220 -254 66 -87
275 -368 286 -385 7 -10 44 -71 84 -134 39 -63 81 -128 92 -145 26 -37 167
-314 167 -328 0 -6 11 -25 25 -43 14 -18 25 -37 25 -43 0 -6 9 -11 21 -11 20
0 20 1 -5 31 -14 17 -26 37 -26 46 0 40 -184 378 -276 508 -65 91 -108 149
-115 155 -3 3 -12 16 -19 30 -15 29 -121 192 -130 200 -3 3 -36 45 -73 95
-100 131 -160 199 -266 303 -90 86 -123 111 -104 77z"/>
<path d="M4723 5732 c-30 -41 -73 -129 -73 -149 0 -10 23 24 51 76 51 94 60
124 22 73z"/>
<path d="M1604 5523 c11 -28 69 -113 78 -113 4 0 8 -7 8 -15 0 -8 4 -15 8 -15
4 0 16 -14 26 -32 11 -17 25 -39 32 -47 24 -30 275 -397 284 -415 11 -23 125
-191 133 -194 4 -2 7 -7 7 -12 0 -5 17 -35 39 -67 21 -32 75 -119 120 -194 72
-121 81 -141 81 -185 0 -83 -54 -167 -125 -194 -16 -7 -55 -12 -85 -11 -48 0
-53 -2 -37 -13 29 -22 130 -7 184 28 34 21 92 123 94 162 0 14 4 11 14 -11 8
-16 14 -26 15 -21 0 5 12 -1 27 -15 26 -24 26 -23 -7 36 -18 33 -47 83 -65
110 -18 28 -47 76 -64 108 -42 76 -128 209 -175 270 -20 26 -60 89 -90 140
-103 178 -298 466 -423 625 -71 90 -92 109 -79 75z"/>
<path d="M5181 5384 c0 -11 3 -14 6 -6 3 7 2 16 -1 19 -3 4 -6 -2 -5 -13z"/>
<path d="M5195 5295 c5 -58 14 -108 21 -114 8 -8 3 33 -11 99 -14 61 -14 62
-10 15z"/>
<path d="M520 5310 c-35 -10 -12 -17 75 -24 80 -6 88 -8 170 -31 64 -19 215
-90 243 -115 10 -8 26 -22 36 -30 18 -14 19 -13 10 2 -14 27 -120 105 -177
131 -98 46 -297 83 -357 67z"/>
<path d="M392 5260 c-26 -26 -30 -37 -28 -74 3 -56 28 -89 161 -221 152 -151
315 -289 399 -339 28 -16 27 -15 -9 19 -22 20 -74 67 -115 103 -279 250 -394
364 -411 409 -15 39 11 86 62 111 l44 22 -37 0 c-27 0 -44 -8 -66 -30z"/>
<path d="M1126 5068 c5 -9 119 -128 254 -265 241 -246 286 -293 405 -429 140
-160 307 -336 313 -330 4 4 -122 155 -188 226 -17 18 -54 60 -83 94 -84 97
-156 176 -231 254 -132 137 -362 367 -397 396 -19 16 -45 38 -58 50 -17 15
-21 16 -15 4z"/>
<path d="M10955 4807 c-59 -34 -165 -110 -165 -118 0 -12 -7 -15 118 67 54 35
90 63 82 63 -8 -1 -24 -6 -35 -12z"/>
<path d="M12656 4558 c-14 -94 -29 -398 -18 -373 9 19 18 122 27 318 4 88 0
114 -9 55z"/>
<path d="M1000 4561 c0 -21 102 -149 205 -257 55 -58 228 -246 270 -294 27
-30 52 -56 57 -58 4 -2 8 -8 8 -13 0 -5 17 -27 38 -47 20 -21 62 -67 92 -102
30 -35 75 -84 99 -108 41 -42 43 -46 39 -91 -3 -26 -15 -68 -28 -94 -19 -39
-28 -47 -51 -47 -28 0 -105 14 -169 31 -19 5 -71 18 -115 28 -44 11 -89 22
-100 25 -11 4 11 -9 49 -28 39 -18 95 -39 125 -47 31 -7 60 -15 66 -18 5 -2
18 -6 30 -7 11 -2 47 -6 80 -11 69 -9 125 -6 125 8 0 5 -11 9 -25 9 -30 0 -31
6 -6 28 22 19 56 116 46 132 -14 22 14 8 29 -15 14 -21 56 -36 56 -20 0 9 -64
64 -75 65 -5 0 -28 24 -50 52 -36 46 -169 205 -261 313 -38 44 -245 265 -309
330 -22 22 -76 81 -119 130 -112 127 -106 122 -106 106z"/>
<path d="M4500 4085 c-30 -18 -70 -41 -87 -51 -33 -16 -44 -34 -20 -34 6 0 30
11 52 25 22 13 49 28 60 34 24 11 72 61 59 61 -5 0 -34 -16 -64 -35z"/>
<path d="M2110 4024 c0 -21 103 -84 117 -71 7 8 -14 28 -60 55 -38 22 -57 27
-57 16z"/>
<path d="M465 3824 c-176 -37 -260 -76 -318 -145 -33 -40 -37 -97 -9 -122 28
-25 30 -21 17 30 -11 43 -10 51 8 79 17 25 60 55 87 59 3 1 21 8 42 17 61 27
244 58 347 59 90 1 94 2 66 14 -28 13 -190 19 -240 9z"/>
<path d="M3258 3789 c-21 -11 -38 -24 -38 -30 0 -6 15 -1 33 10 19 11 37 18
40 14 4 -3 7 1 7 10 0 20 4 21 -42 -4z"/>
<path d="M791 3782 c20 -11 45 -22 55 -25 68 -21 316 -130 391 -171 49 -28 93
-40 93 -27 0 5 -10 13 -22 17 -13 3 -35 15 -49 25 -83 59 -342 164 -474 193
-29 6 -28 5 6 -12z"/>
<path d="M3165 3730 c-39 -26 -25 -26 17 0 18 11 29 20 23 20 -5 0 -23 -9 -40
-20z"/>
<path d="M3095 3690 c-3 -5 -1 -10 4 -10 6 0 11 5 11 10 0 6 -2 10 -4 10 -3 0
-8 -4 -11 -10z"/>
<path d="M3535 3678 c-4 -13 -18 -46 -31 -74 -25 -55 -147 -363 -159 -403 -4
-14 -3 -21 2 -18 8 5 45 96 110 272 8 22 21 54 28 70 31 71 66 168 61 172 -2
2 -7 -6 -11 -19z"/>
<path d="M200 3530 c0 -39 364 -170 540 -194 51 -7 60 -10 -200 75 -68 23
-153 54 -187 70 -35 16 -69 29 -76 29 -6 0 -21 7 -31 15 -23 17 -46 20 -46 5z"/>
<path d="M824 3306 c11 -9 26 -16 33 -16 15 0 135 -45 173 -65 14 -7 43 -18
65 -25 22 -7 48 -20 59 -29 10 -9 20 -15 22 -13 2 1 29 -9 59 -23 31 -14 59
-25 64 -25 4 0 30 -12 57 -26 27 -14 49 -25 49 -24 0 2 18 -6 40 -17 22 -11
51 -24 65 -28 55 -15 128 -60 150 -92 39 -56 91 -107 175 -168 105 -77 222
-187 372 -352 43 -47 108 -117 144 -155 37 -38 70 -81 74 -96 3 -15 33 -82 65
-148 73 -153 94 -221 80 -261 -14 -40 1 -183 22 -209 4 -6 6 -19 2 -28 -3 -9
-1 -16 5 -16 9 0 11 -66 7 -258 -3 -142 -8 -265 -10 -273 -3 -8 -8 -81 -10
-164 -3 -82 -12 -202 -21 -265 -9 -63 -18 -128 -20 -145 -3 -37 -15 -119 -22
-160 -8 -44 -12 -74 -19 -134 -3 -30 -7 -63 -9 -73 -3 -12 2 -18 16 -18 10 0
19 3 20 8 1 13 8 65 19 137 5 39 12 95 15 125 3 30 8 62 10 70 4 14 9 59 20
172 3 29 7 67 10 83 2 17 7 62 10 100 4 39 10 86 15 105 17 68 25 218 23 455
-1 221 -3 247 -25 329 -18 63 -23 99 -18 127 15 79 5 131 -38 219 -72 147
-122 232 -180 310 -32 41 -61 81 -67 88 -25 33 -277 283 -335 332 -36 30 -95
84 -132 120 -36 36 -89 86 -117 112 -28 26 -51 56 -51 66 0 14 -16 27 -55 46
-31 14 -60 26 -64 26 -5 0 -22 6 -38 14 -15 8 -62 29 -103 46 -41 17 -88 37
-105 45 -117 54 -143 65 -149 65 -4 0 -26 9 -49 19 -100 46 -226 90 -272 96
-46 6 -49 5 -31 -9z"/>
<path d="M3305 2990 c2 -14 12 -70 21 -125 31 -193 73 -392 93 -436 25 -56 26
-43 2 56 -11 44 -38 172 -61 285 -22 113 -45 214 -50 225 -8 18 -9 17 -5 -5z"/>
<path d="M4736 2640 c4 -19 10 -42 15 -50 11 -18 1 34 -13 65 -5 13 -6 9 -2
-15z"/>
<path d="M4770 2533 c0 -22 101 -296 107 -290 4 4 -95 288 -103 296 -2 2 -4 0
-4 -6z"/>
<path d="M3654 2250 c-58 -29 -246 -221 -231 -236 3 -4 21 11 39 32 91 107
180 182 243 207 33 13 36 16 15 16 -14 1 -43 -8 -66 -19z"/>
<path d="M4880 2221 c0 -6 4 -13 10 -16 6 -3 7 1 4 9 -7 18 -14 21 -14 7z"/>
<path d="M11803 2085 c0 -22 2 -30 4 -17 2 12 2 30 0 40 -3 9 -5 -1 -4 -23z"/>
<path d="M11472 2078 c3 -18 21 -94 40 -168 20 -74 55 -227 77 -340 23 -113
44 -211 47 -219 23 -70 -10 171 -41 292 -18 69 -22 91 -40 217 -13 88 -45 215
-60 240 -14 22 -27 9 -23 -22z"/>
<path d="M4850 2078 c0 -5 14 -8 31 -8 25 0 32 -6 46 -37 8 -21 24 -57 34 -80
10 -23 19 -44 19 -47 0 -11 345 -806 357 -825 2 -2 5 -2 7 0 3 2 -9 33 -25 67
-16 35 -29 66 -29 69 0 3 -11 31 -24 62 -14 31 -57 135 -96 231 -85 205 -91
219 -120 285 -12 28 -28 66 -35 85 -7 19 -31 74 -53 122 -40 86 -40 87 -76 85
-20 -1 -36 -5 -36 -9z"/>
<path d="M11790 1993 c0 -27 -4 -77 -10 -113 -12 -90 -21 -257 -10 -205 16 81
37 365 26 365 -3 0 -6 -21 -6 -47z"/>
<path d="M3327 1941 c-59 -38 -43 -44 18 -6 22 13 33 24 25 24 -8 0 -27 -8
-43 -18z"/>
<path d="M3095 1843 c-136 -29 -176 -33 -221 -23 -57 13 -67 7 -24 -15 36 -19
156 -23 173 -6 6 6 18 11 27 12 20 1 99 38 80 37 -8 0 -24 -2 -35 -5z"/>
<path d="M5715 1798 c-13 -20 -32 -72 -36 -103 0 -5 -5 -17 -10 -27 -11 -21
-39 -192 -29 -181 9 10 30 69 36 103 8 43 56 194 66 207 5 7 5 14 -1 17 -5 4
-17 -4 -26 -16z"/>
<path d="M11761 1614 c0 -11 3 -14 6 -6 3 7 2 16 -1 19 -3 4 -6 -2 -5 -13z"/>
<path d="M12246 1349 c-8 -59 -6 -277 2 -329 l6 -35 7 30 c10 45 10 373 0 379
-5 3 -12 -17 -15 -45z"/>
<path d="M5583 1338 c-14 -28 -85 -223 -97 -268 -2 -8 -12 -35 -21 -60 -30
-83 -72 -234 -100 -355 -15 -66 -31 -131 -35 -145 -11 -31 -27 -132 -36 -225
-3 -38 -8 -78 -10 -88 -2 -10 -6 -59 -10 -109 -6 -84 -5 -90 12 -86 16 3 20
20 31 118 14 126 39 255 84 426 16 60 31 131 33 157 3 26 9 55 14 64 5 10 15
50 22 88 7 39 17 75 21 81 5 6 6 14 3 17 -3 3 -2 12 2 19 5 7 10 21 11 31 2
11 19 66 38 123 18 57 38 127 44 156 5 29 13 61 16 71 12 29 -4 19 -22 -15z"/>
<path d="M11652 1285 c0 -16 2 -22 5 -12 2 9 2 23 0 30 -3 6 -5 -1 -5 -18z"/>
<path d="M5370 1006 c0 -8 4 -17 9 -20 5 -4 7 3 4 14 -6 23 -13 26 -13 6z"/>
<path d="M11725 890 c3 -25 8 -65 11 -90 3 -25 7 -62 9 -84 3 -21 7 -46 9 -55
3 -9 8 -41 11 -71 4 -30 10 -73 15 -95 5 -22 12 -67 15 -100 4 -33 8 -67 10
-75 6 -22 24 -239 25 -292 0 -23 5 -28 25 -28 23 0 24 2 20 58 -18 218 -24
284 -30 312 -14 71 -25 130 -30 170 -15 112 -101 445 -90 350z"/>
<path d="M11037 794 c-2 -2 -125 -7 -407 -19 -63 -3 -198 -7 -300 -10 -572
-17 -727 -27 -924 -62 -110 -19 -131 -36 -123 -98 4 -24 18 -65 33 -92 51 -91
303 -466 336 -498 11 -11 2 8 -21 42 -23 35 -44 70 -48 78 -3 9 -39 66 -79
126 -41 61 -74 113 -74 115 0 3 -14 26 -31 50 -43 63 -89 168 -89 203 0 26 5
32 38 41 117 34 496 62 1037 75 127 3 264 8 305 10 41 2 138 7 215 10 77 3
173 8 213 11 105 6 122 0 122 -45 0 -20 -10 -94 -21 -166 -26 -161 -25 -158
-34 -225 -7 -54 -40 -260 -51 -312 -4 -21 -2 -28 9 -28 10 0 17 15 21 47 4 27
11 68 16 93 5 25 21 122 35 215 14 94 33 211 42 260 34 197 40 188 -110 183
-60 -2 -109 -4 -110 -4z"/>
<path d="M12189 473 c-5 -16 -12 -34 -14 -40 -2 -7 -1 -13 4 -13 5 0 13 18 19
40 11 46 6 53 -9 13z"/>
<path d="M3940 441 c0 -6 10 -11 23 -12 45 -1 185 -39 290 -79 43 -17 82 -30
85 -30 3 0 -18 16 -48 35 -30 19 -61 39 -67 45 -7 6 -13 8 -13 6 0 -3 -17 4
-37 15 -44 25 -233 41 -233 20z"/>
<path d="M12165 388 c-14 -49 -59 -196 -80 -263 -31 -96 -37 -125 -27 -125 9
0 18 28 63 190 12 41 30 106 40 144 11 38 18 71 15 73 -2 2 -7 -6 -11 -19z"/>
<path d="M4410 227 c0 -6 106 -213 117 -226 2 -2 6 -2 9 2 3 3 -17 48 -44 99
-51 94 -81 140 -82 125z"/>
<path d="M8743 33 c-28 -5 -53 -33 -30 -33 9 0 27 4 41 10 16 6 27 6 31 0 4
-6 13 -10 22 -10 14 0 14 3 -2 20 -18 20 -22 21 -62 13z"/>
</g>
</svg>
